<?xml version="1.0" encoding="UTF-8"?>
<svg width="100px" height="100px" viewBox="0 0 100 100" version="1.1" xmlns="http://www.w3.org/2000/svg" xmlns:xlink="http://www.w3.org/1999/xlink">
    <!-- Generator: sketchtool 41.2 (35397) - http://www.bohemiancoding.com/sketch -->
    <title>35C3DF0F-684C-4422-B80E-27BD155D8E50</title>
    <desc>Created with sketchtool.</desc>
    <defs></defs>
    <g id="Landing" stroke="none" stroke-width="1" fill="none" fill-rule="evenodd">
        <g id="Reset-Password-Desktop" transform="translate(-670.000000, -207.000000)">
            <g id="View" transform="translate(545.000000, 207.000000)">
                <g id="app-icon" transform="translate(125.000000, 0.000000)">
                    <path d="M76.171875,1.70455437e-15 C90.625,1.70455437e-15 100,9.375 100,23.828125 L100,76.171875 C100,90.625 90.625,100 76.171875,100 L23.828125,100 C9.375,100 0,90.625 0,76.171875 L0,23.828125 C0,9.375 9.375,1.70455438e-15 23.828125,1.70455438e-15 L76.171875,1.70455437e-15 Z" id="App-Icon-Shape" fill="#FFFFFF"></path>
                    <path d="M39.2758049,21.5909091 C39.2758049,26.2204072 42.2447917,30.1676136 46.3780777,31.6335227 L46.3780777,39.3465909 L38.0920928,39.3465909 C36.1309186,39.3465909 34.5409564,40.936553 34.5409564,42.8977273 C34.5409564,44.8589015 36.1309186,46.4488636 38.0920928,46.4488636 L46.3780777,46.4488636 L46.3780777,74.6036932 C35.5078125,73.0416667 26.8875473,64.4216383 25.3257576,53.5511364 L25.7085701,53.5511364 C27.6697443,53.5511364 29.2597064,51.9611742 29.2597064,50 C29.2597064,48.0388258 27.6697443,46.4488636 25.7085701,46.4488636 L21.5198864,46.4488636 C19.5587121,46.4488636 17.96875,48.0388258 17.96875,50 C17.96875,66.422822 30.4202178,79.9900568 46.3780777,81.7623106 L46.3780777,85.5113636 C46.3780777,87.4725379 47.9680398,89.0625 49.929214,89.0625 C51.8903883,89.0625 53.4803504,87.4725379 53.4803504,85.5113636 L53.4803504,81.7623106 C69.4382102,79.9900568 81.889678,66.422822 81.889678,50 C81.889678,48.0388258 80.2997159,46.4488636 78.3385417,46.4488636 L74.149858,46.4488636 C72.1886837,46.4488636 70.5987216,48.0388258 70.5987216,50 C70.5987216,51.9611742 72.1886837,53.5511364 74.149858,53.5511364 L74.5326705,53.5511364 C72.9708807,64.4216383 64.3506155,73.0416667 53.4803504,74.6036932 L53.4803504,46.4488636 L61.7663352,46.4488636 C63.7275095,46.4488636 65.3174716,44.8589015 65.3174716,42.8977273 C65.3174716,40.936553 63.7275095,39.3465909 61.7663352,39.3465909 L53.4803504,39.3465909 L53.4803504,31.6335227 C57.6136364,30.1676136 60.5826231,26.2204072 60.5826231,21.5909091 C60.5826231,15.7166193 55.803267,10.9375 49.929214,10.9375 C44.055161,10.9375 39.2758049,15.7168561 39.2758049,21.5909091 L39.2758049,21.5909091 Z M49.929214,18.0397727 C51.8873106,18.0397727 53.4803504,19.6328125 53.4803504,21.5909091 C53.4803504,23.5490057 51.8873106,25.1420455 49.929214,25.1420455 C47.9711174,25.1420455 46.3780777,23.5490057 46.3780777,21.5909091 C46.3780777,19.6328125 47.9711174,18.0397727 49.929214,18.0397727 L49.929214,18.0397727 Z" id="icon" fill="#00D494"></path>
                </g>
            </g>
        </g>
    </g>
</svg>