<?xml version="1.0" encoding="UTF-8"?>
<svg width="202px" height="60px" viewBox="0 0 202 60" version="1.1" xmlns="http://www.w3.org/2000/svg" xmlns:xlink="http://www.w3.org/1999/xlink">
    <!-- Generator: sketchtool 41.2 (35397) - http://www.bohemiancoding.com/sketch -->
    <title>45CED2F9-C993-41F0-AC61-D144834C4C92</title>
    <desc>Created with sketchtool.</desc>
    <defs></defs>
    <g id="Landing" stroke="none" stroke-width="1" fill="none" fill-rule="evenodd">
        <g id="Home-960" transform="translate(-120.000000, -340.000000)">
            <g id="Head">
                <g id="app-store-button" transform="translate(120.000000, 340.000000)">
                    <rect id="Button" fill="#00D494" x="0" y="0" width="202" height="60" rx="10"></rect>
                    <g id="app-store" transform="translate(62.844444, 27.000000)" fill="#FFFFFF">
                        <path d="M17.4243704,20.256 L14.0262815,20.256 L12.1648889,14.3925 L5.6949037,14.3925 L3.92179259,20.256 L0.613481481,20.256 L7.02361481,0.294 L10.9828148,0.294 L17.4243704,20.256 Z M11.6037778,11.9325 L9.92044444,6.72 C9.74238519,6.1875 9.40871111,4.9335 8.91642963,2.9595 L8.85657778,2.9595 C8.66056296,3.8085 8.34484444,5.0625 7.91091852,6.72 L6.25751111,11.9325 L11.6037778,11.9325 L11.6037778,11.9325 Z" id="Shape"></path>
                        <path d="M33.9090667,12.882 C33.9090667,15.33 33.2492,17.265 31.9294667,18.6855 C30.7473926,19.95 29.2795259,20.5815 27.527363,20.5815 C25.6360444,20.5815 24.2774074,19.9005 23.4499556,18.5385 L23.3901037,18.5385 L23.3901037,26.121 L20.2,26.121 L20.2,10.6005 C20.2,9.0615 20.1596,7.482 20.0817926,5.862 L22.8873481,5.862 L23.0654074,8.1435 L23.1252593,8.1435 C24.1891259,6.4245 25.8036296,5.5665 27.9702667,5.5665 C29.6640741,5.5665 31.0780741,6.237 32.2092741,7.5795 C33.3434667,8.9235 33.9090667,10.6905 33.9090667,12.882 Z M30.6591111,12.999 C30.6591111,11.598 30.3448889,10.443 29.7134519,9.534 C29.0236593,8.586 28.0974519,8.112 26.9363259,8.112 C26.1492741,8.112 25.4340444,8.376 24.7951259,8.8965 C24.1547111,9.4215 23.7357481,10.107 23.5397333,10.956 C23.4409778,11.352 23.3916,11.676 23.3916,11.931 L23.3916,14.331 C23.3916,15.378 23.7118074,16.2615 24.3522222,16.983 C24.992637,17.7045 25.8245778,18.0645 26.8480444,18.0645 C28.0495704,18.0645 28.9847556,17.5995 29.6536,16.6725 C30.3239407,15.744 30.6591111,14.52 30.6591111,12.999 Z" id="Shape"></path>
                        <path d="M50.4236889,12.882 C50.4236889,15.33 49.7638222,17.265 48.4425926,18.6855 C47.2620148,19.95 45.7941481,20.5815 44.0419852,20.5815 C42.1506667,20.5815 40.7920296,19.9005 39.9660741,18.5385 L39.9062222,18.5385 L39.9062222,26.121 L36.7161185,26.121 L36.7161185,10.6005 C36.7161185,9.0615 36.6757185,7.482 36.5979111,5.862 L39.4034667,5.862 L39.5815259,8.1435 L39.6413778,8.1435 C40.7037481,6.4245 42.3182519,5.5665 44.4863852,5.5665 C46.1786963,5.5665 47.5926963,6.237 48.7268889,7.5795 C49.8565926,8.9235 50.4236889,10.6905 50.4236889,12.882 Z M47.1737333,12.999 C47.1737333,11.598 46.8580148,10.443 46.2265778,9.534 C45.5367852,8.586 44.6135704,8.112 43.4509481,8.112 C42.6624,8.112 41.9486667,8.376 41.3082519,8.8965 C40.667837,9.4215 40.2503704,10.107 40.0543556,10.956 C39.9570963,11.352 39.9062222,11.676 39.9062222,11.931 L39.9062222,14.331 C39.9062222,15.378 40.2264296,16.2615 40.8638519,16.983 C41.5042667,17.703 42.3362074,18.0645 43.3626667,18.0645 C44.5641926,18.0645 45.4993778,17.5995 46.1682222,16.6725 C46.838563,15.744 47.1737333,14.52 47.1737333,12.999 Z" id="Shape"></path>
                        <path d="M68.8879852,14.658 C68.8879852,16.356 68.2999407,17.7375 67.119363,18.804 C65.8220741,19.9695 64.0160444,20.5515 61.6952889,20.5515 C59.5525926,20.5515 57.8348444,20.1375 56.534563,19.308 L57.2737333,16.6425 C58.6742667,17.4915 60.210963,17.9175 61.8853185,17.9175 C63.0868444,17.9175 64.0220296,17.6445 64.6938667,17.1015 C65.3627111,16.5585 65.6963852,15.8295 65.6963852,14.9205 C65.6963852,14.1105 65.4210667,13.428 64.8689333,12.8745 C64.3197926,12.321 63.402563,11.8065 62.1217333,11.331 C58.635363,10.0275 56.8936741,8.118 56.8936741,5.607 C56.8936741,3.966 57.504163,2.6205 58.726637,1.5735 C59.9446222,0.525 61.5696,0.0015 63.6015704,0.0015 C65.4135852,0.0015 66.9188593,0.318 68.1203852,0.9495 L67.3228593,3.5565 C66.200637,2.9445 64.9317778,2.6385 63.5117926,2.6385 C62.3895704,2.6385 61.5127407,2.916 60.8842963,3.468 C60.3531111,3.9615 60.0867704,4.563 60.0867704,5.2755 C60.0867704,6.0645 60.3905185,6.717 61.0010074,7.23 C61.5321926,7.704 62.4973037,8.217 63.897837,8.7705 C65.6110963,9.462 66.8694815,10.2705 67.6789778,11.1975 C68.4854815,12.1215 68.8879852,13.278 68.8879852,14.658 Z" id="Shape"></path>
                        <path d="M79.4353778,8.262 L75.9190815,8.262 L75.9190815,15.2505 C75.9190815,17.028 76.5385481,17.916 77.7804741,17.916 C78.350563,17.916 78.8233926,17.8665 79.1974667,17.7675 L79.2857481,20.196 C78.6573037,20.4315 77.8298519,20.55 76.8048889,20.55 C75.5450074,20.55 74.5604444,20.1645 73.8497037,19.395 C73.1419556,18.624 72.785837,17.331 72.785837,15.5145 L72.785837,8.259 L70.6910222,8.259 L70.6910222,5.859 L72.785837,5.859 L72.785837,3.2235 L75.9190815,2.2755 L75.9190815,5.859 L79.4353778,5.859 L79.4353778,8.262 Z" id="Shape"></path>
                        <path d="M95.3006074,12.9405 C95.3006074,15.153 94.6691704,16.9695 93.4092889,18.39 C92.0880593,19.8525 90.3344,20.5815 88.1483111,20.5815 C86.0415259,20.5815 84.3641778,19.881 83.1132741,18.48 C81.8623704,17.079 81.2369185,15.3105 81.2369185,13.179 C81.2369185,10.9485 81.8803259,9.1215 83.1716296,7.701 C84.4599407,6.279 86.198637,5.568 88.3847259,5.568 C90.4915111,5.568 92.1868148,6.2685 93.4661481,7.671 C94.6901185,9.0315 95.3006074,10.788 95.3006074,12.9405 Z M91.9908,13.044 C91.9908,11.7165 91.708,10.578 91.1349185,9.6285 C90.4660741,8.4795 89.5099407,7.9065 88.2710074,7.9065 C86.9886815,7.9065 86.0145926,8.481 85.3457481,9.6285 C84.7726667,10.5795 84.4898667,11.736 84.4898667,13.104 C84.4898667,14.4315 84.7726667,15.57 85.3457481,16.518 C86.0355407,17.667 86.9991556,18.24 88.2425778,18.24 C89.460563,18.24 90.4166963,17.655 91.1064889,16.488 C91.6945333,15.5205 91.9908,14.37 91.9908,13.044 Z" id="Shape"></path>
                        <path d="M105.669941,8.6745 C105.354222,8.616 105.017556,8.586 104.66443,8.586 C103.542207,8.586 102.674356,9.0105 102.063867,9.861 C101.532681,10.611 101.266341,11.559 101.266341,12.7035 L101.266341,20.256 L98.0777333,20.256 L98.1076593,10.395 C98.1076593,8.736 98.0672593,7.2255 97.9879556,5.8635 L100.766578,5.8635 L100.883289,8.6175 L100.97157,8.6175 C101.308237,7.671 101.839422,6.909 102.566622,6.3375 C103.277363,5.823 104.044963,5.5665 104.872415,5.5665 C105.167185,5.5665 105.433526,5.5875 105.669941,5.625 L105.669941,8.6745 Z" id="Shape"></path>
                        <path d="M119.937126,12.378 C119.937126,12.951 119.899719,13.434 119.820415,13.8285 L110.250104,13.8285 C110.287511,15.2505 110.749867,16.338 111.638667,17.088 C112.44517,17.7585 113.488089,18.0945 114.768919,18.0945 C116.185911,18.0945 117.478711,17.868 118.641333,17.4135 L119.141096,19.6335 C117.782459,20.2275 116.17843,20.523 114.327511,20.523 C112.101022,20.523 110.353348,19.866 109.081496,18.5535 C107.812637,17.241 107.176711,15.4785 107.176711,13.2675 C107.176711,11.097 107.767748,9.2895 108.951319,7.848 C110.190252,6.309 111.864607,5.5395 113.971393,5.5395 C116.04077,5.5395 117.607393,6.309 118.671259,7.848 C119.513674,9.0705 119.937126,10.5825 119.937126,12.378 Z M116.895156,11.5485 C116.916104,10.6005 116.708119,9.7815 116.275689,9.09 C115.723556,8.2005 114.875156,7.7565 113.733481,7.7565 C112.690563,7.7565 111.842163,8.19 111.194267,9.06 C110.663081,9.7515 110.347363,10.581 110.250104,11.547 L116.895156,11.547 L116.895156,11.5485 Z" id="Shape"></path>
                    </g>
                    <g id="download" transform="translate(65.340741, 9.000000)" fill="#FFFFFF">
                        <path d="M8.05259259,6.0135 C8.05259259,7.779 7.5244,9.108 6.46951111,10.0005 C5.49242963,10.824 4.10386667,11.2365 2.30531852,11.2365 C1.41352593,11.2365 0.650414815,11.1975 0.0114962963,11.1195 L0.0114962963,1.473 C0.844933333,1.338 1.74271111,1.269 2.71231111,1.269 C4.42557037,1.269 5.71687407,1.6425 6.58771852,2.3895 C7.5633037,3.234 8.05259259,4.4415 8.05259259,6.0135 Z M6.39918519,6.057 C6.39918519,4.9125 6.09693333,4.035 5.49242963,3.423 C4.88792593,2.8125 4.00511111,2.5065 2.84248889,2.5065 C2.34871111,2.5065 1.92825185,2.5395 1.57961481,2.6085 L1.57961481,9.942 C1.77263704,9.972 2.12576296,9.9855 2.63899259,9.9855 C3.83902222,9.9855 4.76522963,9.651 5.41761481,8.982 C6.07,8.313 6.39918519,7.338 6.39918519,6.057 Z" id="Shape"></path>
                        <path d="M16.8193926,7.5555 C16.8193926,8.643 16.5096593,9.534 15.8901926,10.233 C15.2408,10.9515 14.3804296,11.31 13.3060889,11.31 C12.2706519,11.31 11.4461926,10.9665 10.8312148,10.2765 C10.2177333,9.588 9.91099259,8.7195 9.91099259,7.6725 C9.91099259,6.5775 10.2267111,5.679 10.8611407,4.9815 C11.4955704,4.284 12.3484593,3.9345 13.4228,3.9345 C14.458237,3.9345 15.2901778,4.278 15.9201185,4.9665 C16.518637,5.6355 16.8193926,6.4995 16.8193926,7.5555 Z M15.1929185,7.6065 C15.1929185,6.954 15.0522667,6.3945 14.7724593,5.928 C14.4432741,5.364 13.9749333,5.082 13.3659407,5.082 C12.736,5.082 12.2571852,5.364 11.928,5.928 C11.6466963,6.3945 11.5075407,6.963 11.5075407,7.635 C11.5075407,8.2875 11.6481926,8.847 11.928,9.3135 C12.2676593,9.8775 12.7404889,10.1595 13.3509778,10.1595 C13.9494963,10.1595 14.4193333,9.873 14.7574963,9.2985 C15.0477778,8.823 15.1929185,8.259 15.1929185,7.6065 Z" id="Shape"></path>
                        <path d="M28.5742963,4.0785 L26.3672593,11.1495 L24.9308148,11.1495 L24.0165778,8.079 C23.7846519,7.3125 23.5961185,6.5505 23.4494815,5.7945 L23.4210519,5.7945 C23.2848889,6.5715 23.0963556,7.332 22.8539556,8.079 L21.8828593,11.1495 L20.4299556,11.1495 L18.3545926,4.0785 L19.9661037,4.0785 L20.7636296,7.44 C20.9566519,8.235 21.1152593,8.9925 21.2424444,9.7095 L21.2708741,9.7095 C21.3875852,9.1185 21.5806074,8.3655 21.8529333,7.455 L22.8539556,4.08 L24.1317926,4.08 L25.0909185,7.383 C25.3228444,8.1885 25.5113778,8.964 25.6565185,9.711 L25.6999111,9.711 C25.8061481,8.9835 25.9662519,8.208 26.1787259,7.383 L27.0346074,4.08 L28.5742963,4.08 L28.5742963,4.0785 Z" id="Shape"></path>
                        <path d="M36.7036741,11.1495 L35.1355556,11.1495 L35.1355556,7.0995 C35.1355556,5.8515 34.6627259,5.2275 33.7140741,5.2275 C33.2487259,5.2275 32.8731556,5.3985 32.5813778,5.742 C32.2925926,6.0855 32.1459556,6.4905 32.1459556,6.954 L32.1459556,11.148 L30.577837,11.148 L30.577837,6.099 C30.577837,5.478 30.5583852,4.8045 30.5209778,4.0755 L31.8990667,4.0755 L31.9723852,5.181 L32.0157778,5.181 C32.1983259,4.8375 32.4706519,4.554 32.8282667,4.3275 C33.2532148,4.0635 33.729037,3.93 34.2497481,3.93 C34.9081185,3.93 35.455763,4.143 35.8911852,4.5705 C36.4328444,5.094 36.7036741,5.8755 36.7036741,6.9135 L36.7036741,11.1495 L36.7036741,11.1495 Z" id="Shape"></path>
                        <polygon id="Shape" points="41.0279704 11.1495 39.4613481 11.1495 39.4613481 0.834 41.0279704 0.834"></polygon>
                        <path d="M50.2601185,7.5555 C50.2601185,8.643 49.9503852,9.534 49.3309185,10.233 C48.6815259,10.9515 47.8196593,11.31 46.7468148,11.31 C45.7098815,11.31 44.8854222,10.9665 44.2719407,10.2765 C43.6584593,9.588 43.3517185,8.7195 43.3517185,7.6725 C43.3517185,6.5775 43.667437,5.679 44.3018667,4.9815 C44.9362963,4.284 45.7891852,3.9345 46.8620296,3.9345 C47.898963,3.9345 48.7294074,4.278 49.3608444,4.9665 C49.959363,5.6355 50.2601185,6.4995 50.2601185,7.5555 Z M48.6321481,7.6065 C48.6321481,6.954 48.4914963,6.3945 48.2116889,5.928 C47.884,5.364 47.414163,5.082 46.8066667,5.082 C46.1752296,5.082 45.6964148,5.364 45.3687259,5.928 C45.0874222,6.3945 44.9482667,6.963 44.9482667,7.635 C44.9482667,8.2875 45.0889185,8.847 45.3687259,9.3135 C45.7083852,9.8775 46.1812148,10.1595 46.7917037,10.1595 C47.3902222,10.1595 47.858563,9.873 48.1967259,9.2985 C48.4885037,8.823 48.6321481,8.259 48.6321481,7.6065 Z" id="Shape"></path>
                        <path d="M57.8493333,11.1495 L56.4413185,11.1495 L56.3246074,10.335 L56.2812148,10.335 C55.7994074,10.9845 55.1126074,11.31 54.2208148,11.31 C53.554963,11.31 53.0162963,11.0955 52.6108,10.6695 C52.2427111,10.2825 52.0586667,9.801 52.0586667,9.2295 C52.0586667,8.3655 52.4177778,7.707 53.1404889,7.251 C53.8617037,6.795 54.8761926,6.5715 56.1824593,6.582 L56.1824593,6.45 C56.1824593,5.5185 55.6946667,5.0535 54.7175852,5.0535 C54.0218074,5.0535 53.4083259,5.229 52.878637,5.577 L52.5599259,4.545 C53.2153037,4.1385 54.0248,3.9345 54.979437,3.9345 C56.8228741,3.9345 57.7475852,4.9095 57.7475852,6.8595 L57.7475852,9.4635 C57.7475852,10.17 57.782,10.7325 57.8493333,11.1495 Z M56.221363,8.7195 L56.221363,7.629 C54.4916444,7.599 53.6267852,8.0745 53.6267852,9.054 C53.6267852,9.423 53.7255407,9.699 53.9275407,9.8835 C54.1295407,10.068 54.3869037,10.1595 54.6936444,10.1595 C55.0377926,10.1595 55.3594963,10.05 55.6527704,9.8325 C55.9475407,9.6135 56.1285926,9.336 56.1959259,8.9955 C56.2123852,8.919 56.221363,8.826 56.221363,8.7195 Z" id="Shape"></path>
                        <path d="M66.7597778,11.1495 L65.3682222,11.1495 L65.2949037,10.014 L65.2515111,10.014 C64.8071111,10.878 64.0499852,11.31 62.9861185,11.31 C62.1362222,11.31 61.4284741,10.9755 60.867363,10.3065 C60.3062519,9.6375 60.0264444,8.769 60.0264444,7.7025 C60.0264444,6.558 60.3301926,5.631 60.9406815,4.923 C61.5317185,4.263 62.2559259,3.933 63.1177926,3.933 C64.0649481,3.933 64.7278074,4.2525 65.1048741,4.893 L65.1348,4.893 L65.1348,0.834 L66.7044148,0.834 L66.7044148,9.2445 C66.7044148,9.933 66.7223704,10.5675 66.7597778,11.1495 Z M65.1348,8.1675 L65.1348,6.9885 C65.1348,6.7845 65.119837,6.6195 65.0914074,6.4935 C65.0031259,6.1155 64.8130963,5.7975 64.5243111,5.541 C64.2325333,5.2845 63.8809037,5.1555 63.4754074,5.1555 C62.8903556,5.1555 62.4324889,5.388 62.0958222,5.8545 C61.7621481,6.321 61.5930667,6.9165 61.5930667,7.644 C61.5930667,8.343 61.7531704,8.91 62.0748741,9.3465 C62.4145333,9.8115 62.8724,10.044 63.4454815,10.044 C63.9602074,10.044 64.3716889,9.8505 64.6844148,9.462 C64.9866667,9.1035 65.1348,8.6715 65.1348,8.1675 Z" id="Shape"></path>
                        <path d="M80.1710815,7.5555 C80.1710815,8.643 79.8613481,9.534 79.2418815,10.233 C78.5924889,10.9515 77.7336148,11.31 76.6577778,11.31 C75.623837,11.31 74.7993778,10.9665 74.1829037,10.2765 C73.5694222,9.588 73.2626815,8.7195 73.2626815,7.6725 C73.2626815,6.5775 73.5784,5.679 74.2128296,4.9815 C74.8472593,4.284 75.7001481,3.9345 76.7759852,3.9345 C77.8099259,3.9345 78.643363,4.278 79.2718074,4.9665 C79.8703259,5.6355 80.1710815,6.4995 80.1710815,7.5555 Z M78.5461037,7.6065 C78.5461037,6.954 78.4054519,6.3945 78.1256444,5.928 C77.794963,5.364 77.3281185,5.082 76.7176296,5.082 C76.0891852,5.082 75.6103704,5.364 75.2796889,5.928 C74.9983852,6.3945 74.8592296,6.963 74.8592296,7.635 C74.8592296,8.2875 74.9998815,8.847 75.2796889,9.3135 C75.6193481,9.8775 76.0921778,10.1595 76.7026667,10.1595 C77.3011852,10.1595 77.7725185,9.873 78.1106815,9.2985 C78.3994667,8.823 78.5461037,8.259 78.5461037,7.6065 Z" id="Shape"></path>
                        <path d="M88.6027111,11.1495 L87.0360889,11.1495 L87.0360889,7.0995 C87.0360889,5.8515 86.5632593,5.2275 85.6131111,5.2275 C85.147763,5.2275 84.7721926,5.3985 84.4819111,5.742 C84.1916296,6.0855 84.0464889,6.4905 84.0464889,6.954 L84.0464889,11.148 L82.4768741,11.148 L82.4768741,6.099 C82.4768741,5.478 82.4589185,4.8045 82.4215111,4.0755 L83.7981037,4.0755 L83.8714222,5.181 L83.9148148,5.181 C84.0988593,4.8375 84.3711852,4.554 84.7273037,4.3275 C85.1537481,4.0635 85.6280741,3.93 86.1502815,3.93 C86.8071556,3.93 87.3548,4.143 87.7902222,4.5705 C88.3333778,5.094 88.6027111,5.8755 88.6027111,6.9135 L88.6027111,11.1495 L88.6027111,11.1495 Z" id="Shape"></path>
                        <path d="M99.1560889,5.256 L97.429363,5.256 L97.429363,8.691 C97.429363,9.564 97.7361037,10.0005 98.3436,10.0005 C98.6249037,10.0005 98.8583259,9.9765 99.0423704,9.927 L99.0827704,11.1195 C98.773037,11.2365 98.3660444,11.295 97.8647852,11.295 C97.2453185,11.295 96.7635111,11.106 96.4148741,10.728 C96.0647407,10.35 95.8911704,9.714 95.8911704,8.8215 L95.8911704,5.256 L94.8602222,5.256 L94.8602222,4.0785 L95.8911704,4.0785 L95.8911704,2.7825 L97.4278667,2.3175 L97.4278667,4.077 L99.1545926,4.077 L99.1545926,5.256 L99.1560889,5.256 Z" id="Shape"></path>
                        <path d="M107.457541,11.1495 L105.887926,11.1495 L105.887926,7.1295 C105.887926,5.862 105.415096,5.2275 104.467941,5.2275 C103.740741,5.2275 103.24397,5.595 102.971644,6.33 C102.925259,6.4845 102.898326,6.6735 102.898326,6.8955 L102.898326,11.148 L101.331704,11.148 L101.331704,0.834 L102.898326,0.834 L102.898326,5.0955 L102.928252,5.0955 C103.42203,4.32 104.129778,3.933 105.047007,3.933 C105.6964,3.933 106.23357,4.146 106.660015,4.5735 C107.1912,5.106 107.457541,5.898 107.457541,6.945 L107.457541,11.1495 L107.457541,11.1495 Z" id="Shape"></path>
                        <path d="M116.020844,7.2795 C116.020844,7.5615 115.999896,7.7985 115.962489,7.992 L111.25963,7.992 C111.280578,8.691 111.505022,9.2235 111.940444,9.5925 C112.338459,9.9225 112.851689,10.0875 113.480133,10.0875 C114.175911,10.0875 114.810341,9.9765 115.381926,9.753 L115.627319,10.845 C114.958474,11.136 114.171422,11.2815 113.260178,11.2815 C112.167881,11.2815 111.307511,10.959 110.685052,10.314 C110.0596,9.669 109.749867,8.8035 109.749867,7.7175 C109.749867,6.651 110.038652,5.763 110.620711,5.055 C111.228207,4.299 112.049674,3.921 113.086607,3.921 C114.101096,3.921 114.871689,4.299 115.3924,5.055 C115.812859,5.655 116.020844,6.3975 116.020844,7.2795 Z M114.524548,6.873 C114.536519,6.4065 114.433274,6.0045 114.2208,5.6655 C113.948474,5.229 113.534,5.01 112.972889,5.01 C112.461156,5.01 112.043689,5.223 111.724978,5.6505 C111.464622,5.991 111.310504,6.3975 111.25963,6.873 L114.524548,6.873 Z" id="Shape"></path>
                    </g>
                    <path d="M40.2922667,15.459 C41.6000296,13.8195 42.4948148,11.589 42.2464296,9.3255 C40.3536148,9.4095 37.9864741,10.638 36.6233481,12.2415 C35.4173333,13.6545 34.34,15.9705 34.6183111,18.1485 C36.7445481,18.3075 38.9276444,17.073 40.2922667,15.459 Z M45.0804148,29.676 C45.0370222,24.8415 49.0291407,22.4895 49.2116889,22.38 C46.9507852,19.0755 43.4464593,18.624 42.2150074,18.588 C39.2717926,18.2775 36.4168593,20.3535 34.9175704,20.3535 C33.3883556,20.3535 31.0795704,18.618 28.5912296,18.669 C25.3891556,18.7185 22.3935704,20.577 20.750637,23.463 C17.3600296,29.3475 19.8887704,37.995 23.1372296,42.7515 C24.7622074,45.081 26.6610074,47.682 29.1463556,47.5905 C31.577837,47.49 32.4860889,46.0365 35.4203259,46.0365 C38.3276296,46.0365 39.1805185,47.5905 41.7152444,47.532 C44.3247852,47.49 45.9677185,45.192 47.535837,42.8415 C49.4136889,40.1715 50.1678222,37.542 50.1977481,37.407 C50.1364,37.386 45.1297926,35.4705 45.0804148,29.676 Z" id="apple-logo" fill="#FFFFFF"></path>
                </g>
            </g>
        </g>
    </g>
</svg>