<?xml version="1.0" encoding="UTF-8"?>
<svg width="110px" height="26px" viewBox="0 0 110 26" version="1.1" xmlns="http://www.w3.org/2000/svg" xmlns:xlink="http://www.w3.org/1999/xlink">
    <!-- Generator: sketchtool 41.2 (35397) - http://www.bohemiancoding.com/sketch -->
    <title>3E2E88C3-F2AA-4E31-B871-001753639C6A</title>
    <desc>Created with sketchtool.</desc>
    <defs></defs>
    <g id="Landing" stroke="none" stroke-width="1" fill="none" fill-rule="evenodd">
        <g id="Home-Desktop" transform="translate(-535.000000, -1307.000000)">
            <g id="contacts" transform="translate(0.000000, 1030.000000)">
                <g id="facebook" transform="translate(535.000000, 277.000000)">
                    <rect id="button" fill="#3C5A99" x="0" y="0" width="110" height="26" rx="5"></rect>
                    <path d="M42.7470703,13.7822266 L38.7412109,13.7822266 L38.7412109,18 L37.0117188,18 L37.0117188,8.046875 L43.3349609,8.046875 L43.3349609,9.44140625 L38.7412109,9.44140625 L38.7412109,12.4013672 L42.7470703,12.4013672 L42.7470703,13.7822266 Z M48.7285156,18 C48.6829425,17.913411 48.6453452,17.810873 48.6157227,17.6923828 C48.5861001,17.5738926 48.5598959,17.4462897 48.5371094,17.3095703 C48.4277338,17.4235032 48.3058275,17.5305985 48.1713867,17.6308594 C48.0369459,17.7311203 47.8888354,17.8188473 47.7270508,17.894043 C47.5652661,17.9692387 47.3898121,18.0284829 47.2006836,18.0717773 C47.011555,18.1150718 46.8098969,18.1367188 46.5957031,18.1367188 C46.2265607,18.1367188 45.8870458,18.0808925 45.5771484,17.9692383 C45.2672511,17.8575841 45.0017915,17.7026377 44.7807617,17.5043945 C44.559732,17.3061514 44.3865566,17.0725925 44.2612305,16.8037109 C44.1359043,16.5348294 44.0732422,16.2431656 44.0732422,15.9287109 C44.0732422,15.5322246 44.1484367,15.1813166 44.2988281,14.8759766 C44.4492195,14.5706365 44.6679673,14.3154307 44.9550781,14.1103516 C45.2421889,13.9052724 45.5942362,13.7491867 46.0112305,13.6420898 C46.4282247,13.534993 46.9033176,13.4814453 47.4365234,13.4814453 L48.4824219,13.4814453 L48.4824219,12.9960938 C48.4824219,12.6132793 48.3753266,12.3068045 48.1611328,12.0766602 C47.946939,11.8465158 47.6210959,11.7314453 47.1835938,11.7314453 C46.9876292,11.7314453 46.8098966,11.7576495 46.6503906,11.8100586 C46.4908846,11.8624677 46.3553065,11.933105 46.2436523,12.0219727 C46.1319981,12.1108403 46.0454105,12.2167963 45.9838867,12.3398438 C45.922363,12.4628912 45.8916016,12.5950514 45.8916016,12.7363281 L44.2304688,12.7363281 C44.2304688,12.44466 44.3022454,12.1632501 44.4458008,11.8920898 C44.5893562,11.6209296 44.7932929,11.3793956 45.0576172,11.1674805 C45.3219414,10.9555653 45.642088,10.7858079 46.0180664,10.6582031 C46.3940448,10.5305983 46.8144508,10.4667969 47.2792969,10.4667969 C47.6940125,10.4667969 48.0768212,10.5203445 48.4277344,10.6274414 C48.7786476,10.7345383 49.0817045,10.8940419 49.3369141,11.105957 C49.5921237,11.3178722 49.7903639,11.5821924 49.9316406,11.8989258 C50.0729174,12.2156591 50.1435547,12.5859354 50.1435547,13.0097656 L50.1435547,16.2910156 C50.1435547,16.9563835 50.2369782,17.4873027 50.4238281,17.8837891 L50.4238281,18 L48.7285156,18 Z M46.9033203,16.8037109 C47.0947275,16.8037109 47.2735994,16.7786461 47.4399414,16.7285156 C47.6062834,16.6783852 47.7566725,16.6123051 47.8911133,16.5302734 C48.0255541,16.4482418 48.1429031,16.3536789 48.2431641,16.246582 C48.343425,16.1394851 48.4231768,16.0312505 48.4824219,15.921875 L48.4824219,14.5273438 L47.5869141,14.5273438 C46.9716766,14.5273438 46.5091161,14.634439 46.1992188,14.8486328 C45.8893214,15.0628266 45.734375,15.3658835 45.734375,15.7578125 C45.734375,15.9082039 45.7594399,16.0471999 45.8095703,16.1748047 C45.8597008,16.3024095 45.9348953,16.4129227 46.0351562,16.5063477 C46.1354172,16.5997726 46.2573235,16.6726885 46.4008789,16.7250977 C46.5444343,16.7775068 46.7119131,16.8037109 46.9033203,16.8037109 Z M54.921875,16.8105469 C55.1223968,16.8105469 55.3103832,16.7797855 55.4858398,16.7182617 C55.6612965,16.656738 55.8139642,16.5701503 55.9438477,16.4584961 C56.0737311,16.3468419 56.1785478,16.2135424 56.2583008,16.0585938 C56.3380538,15.9036451 56.3824869,15.735027 56.3916016,15.5527344 L57.9570312,15.5527344 C57.9433593,15.9082049 57.8556323,16.2431625 57.6938477,16.5576172 C57.532063,16.8720719 57.3155938,17.146646 57.0444336,17.3813477 C56.7732734,17.6160494 56.4576841,17.8006178 56.0976562,17.9350586 C55.7376284,18.0694994 55.3525411,18.1367188 54.9423828,18.1367188 C54.3727185,18.1367188 53.877118,18.038738 53.4555664,17.8427734 C53.0340148,17.6468089 52.6831069,17.38021 52.402832,17.0429688 C52.1225572,16.7057275 51.9140632,16.3115257 51.7773438,15.8603516 C51.6406243,15.4091774 51.5722656,14.9306666 51.5722656,14.4248047 L51.5722656,14.1855469 C51.5722656,13.679685 51.6406243,13.2011741 51.7773438,12.75 C51.9140632,12.2988259 52.1225572,11.9034848 52.402832,11.5639648 C52.6831069,11.2244449 53.0328755,10.9567067 53.4521484,10.7607422 C53.8714214,10.5647777 54.3658826,10.4667969 54.9355469,10.4667969 C55.3821637,10.4667969 55.7888979,10.5351556 56.1557617,10.671875 C56.5226255,10.8085944 56.8370755,10.9999988 57.0991211,11.2460938 C57.3611667,11.4921887 57.5662427,11.7861311 57.7143555,12.1279297 C57.8624682,12.4697283 57.9433593,12.8457011 57.9570312,13.2558594 L56.3916016,13.2558594 C56.3824869,13.0598949 56.342611,12.8730478 56.2719727,12.6953125 C56.2013343,12.5175772 56.1033535,12.3626309 55.9780273,12.2304688 C55.8527012,12.0983066 55.7011728,11.99349 55.5234375,11.9160156 C55.3457022,11.8385413 55.1451834,11.7998047 54.921875,11.7998047 C54.5846337,11.7998047 54.3066417,11.8693027 54.0878906,12.0083008 C53.8691395,12.1472989 53.6959642,12.3284494 53.5683594,12.5517578 C53.4407546,12.7750662 53.3530276,13.030272 53.3051758,13.3173828 C53.257324,13.6044936 53.2333984,13.8938787 53.2333984,14.1855469 L53.2333984,14.4248047 C53.2333984,14.7255874 53.257324,15.0183905 53.3051758,15.3032227 C53.3530276,15.5880548 53.4407546,15.8421213 53.5683594,16.0654297 C53.6959642,16.2887381 53.8680002,16.4687493 54.0844727,16.6054688 C54.3009451,16.7421882 54.5800764,16.8105469 54.921875,16.8105469 Z M62.46875,18.1367188 C61.9218723,18.1367188 61.4296897,18.0455738 60.9921875,17.8632812 C60.5546853,17.6809887 60.1832698,17.4303401 59.8779297,17.1113281 C59.5725896,16.7923161 59.3378914,16.4140647 59.1738281,15.9765625 C59.0097648,15.5390603 58.9277344,15.0673853 58.9277344,14.5615234 L58.9277344,14.2880859 C58.9277344,13.7047497 59.0143221,13.1772485 59.1875,12.7055664 C59.3606779,12.2338844 59.5976547,11.8328467 59.8984375,11.5024414 C60.1992203,11.1720361 60.5535461,10.9168303 60.9614258,10.7368164 C61.3693054,10.5568025 61.8079404,10.4667969 62.2773438,10.4667969 C62.8151069,10.4667969 63.2822246,10.5568025 63.6787109,10.7368164 C64.0751973,10.9168303 64.403319,11.1686182 64.6630859,11.4921875 C64.9228529,11.8157568 65.1165358,12.2008441 65.2441406,12.6474609 C65.3717454,13.0940778 65.4355469,13.5839817 65.4355469,14.1171875 L65.4355469,14.828125 L60.6025391,14.828125 C60.6253256,15.1152358 60.6857091,15.3795561 60.7836914,15.6210938 C60.8816737,15.8626314 61.0149731,16.0711254 61.1835938,16.246582 C61.3522144,16.4220386 61.5515939,16.5598953 61.7817383,16.6601562 C62.0118827,16.7604172 62.272785,16.8105469 62.5644531,16.8105469 C62.9746114,16.8105469 63.3312159,16.7285164 63.6342773,16.5644531 C63.9373388,16.4003898 64.2005197,16.1748061 64.4238281,15.8876953 L65.3193359,16.7421875 C65.2008458,16.9199228 65.0538746,17.0919588 64.878418,17.2583008 C64.7029614,17.4246428 64.4978853,17.5727533 64.2631836,17.7026367 C64.0284819,17.8325202 63.7630223,17.9373368 63.4667969,18.0170898 C63.1705714,18.0968428 62.8378925,18.1367188 62.46875,18.1367188 Z M62.2705078,11.7998047 C61.8147764,11.7998047 61.4467787,11.9593083 61.1665039,12.2783203 C60.8862291,12.5973323 60.7073572,13.0416638 60.6298828,13.6113281 L63.7949219,13.6113281 L63.7949219,13.4882812 C63.7812499,13.2695302 63.7459313,13.0587575 63.6889648,12.855957 C63.6319984,12.6531565 63.5442714,12.4731453 63.4257812,12.315918 C63.3072911,12.1586906 63.153484,12.0333664 62.9643555,11.9399414 C62.7752269,11.8465165 62.5439467,11.7998047 62.2705078,11.7998047 Z M73.2148438,14.3769531 C73.2148438,14.9238309 73.1521816,15.4274066 73.0268555,15.8876953 C72.9015293,16.3479841 72.7181002,16.7444645 72.4765625,17.0771484 C72.2350248,17.4098324 71.9342466,17.6695954 71.5742188,17.8564453 C71.2141909,18.0432952 70.7994815,18.1367188 70.3300781,18.1367188 C69.878904,18.1367188 69.4869808,18.0558276 69.1542969,17.894043 C68.8216129,17.7322583 68.5390637,17.5009781 68.3066406,17.2001953 L68.2246094,18 L66.7207031,18 L66.7207031,7.5 L68.3818359,7.5 L68.3818359,11.3144531 C68.614259,11.0410143 68.8888331,10.8313809 69.2055664,10.6855469 C69.5222998,10.5397128 69.892576,10.4667969 70.3164062,10.4667969 C70.7949243,10.4667969 71.2141909,10.5590811 71.5742188,10.7436523 C71.9342466,10.9282236 72.2361641,11.1868473 72.4799805,11.5195312 C72.7237968,11.8522152 72.9072259,12.2498349 73.0302734,12.7124023 C73.1533209,13.1749698 73.2148438,13.6819634 73.2148438,14.2333984 L73.2148438,14.3769531 Z M71.5537109,14.2333984 C71.5537109,13.9098291 71.5275068,13.602215 71.4750977,13.3105469 C71.4226885,13.0188788 71.3326829,12.763673 71.2050781,12.5449219 C71.0774733,12.3261708 70.9077159,12.1518561 70.6958008,12.0219727 C70.4838857,11.8920892 70.2184261,11.8271484 69.8994141,11.8271484 C69.5120423,11.8271484 69.1953137,11.9125968 68.9492188,12.0834961 C68.7031238,12.2543954 68.5139981,12.483397 68.3818359,12.7705078 L68.3818359,15.8193359 C68.5139981,16.1064467 68.7042631,16.3388663 68.9526367,16.5166016 C69.2010104,16.6943368 69.5211569,16.7832031 69.9130859,16.7832031 C70.218426,16.7832031 70.4759104,16.720541 70.6855469,16.5952148 C70.8951833,16.4698887 71.0649408,16.298992 71.1948242,16.0825195 C71.3247077,15.8660471 71.4169919,15.6119806 71.4716797,15.3203125 C71.5263675,15.0286444 71.5537109,14.7141944 71.5537109,14.3769531 L71.5537109,14.2333984 Z M74.2949219,14.2333984 C74.2949219,13.6956353 74.3735344,13.1977562 74.5307617,12.7397461 C74.6879891,12.281736 74.9135727,11.8841163 75.2075195,11.546875 C75.5014663,11.2096337 75.8603494,10.9453135 76.2841797,10.7539062 C76.7080099,10.562499 77.1887994,10.4667969 77.7265625,10.4667969 C78.2688829,10.4667969 78.7542296,10.562499 79.1826172,10.7539062 C79.6110047,10.9453135 79.9721665,11.2096337 80.2661133,11.546875 C80.5600601,11.8841163 80.7845044,12.281736 80.9394531,12.7397461 C81.0944018,13.1977562 81.171875,13.6956353 81.171875,14.2333984 L81.171875,14.3769531 C81.171875,14.9147162 81.0944018,15.4137347 80.9394531,15.8740234 C80.7845044,16.3343122 80.5600601,16.7319319 80.2661133,17.0668945 C79.9721665,17.4018571 79.6121441,17.6638988 79.1860352,17.8530273 C78.7599263,18.0421559 78.2779975,18.1367188 77.7402344,18.1367188 C77.197914,18.1367188 76.7137066,18.0421559 76.2875977,17.8530273 C75.8614888,17.6638988 75.5014663,17.4018571 75.2075195,17.0668945 C74.9135727,16.7319319 74.6879891,16.3343122 74.5307617,15.8740234 C74.3735344,15.4137347 74.2949219,14.9147162 74.2949219,14.3769531 L74.2949219,14.2333984 Z M75.9560547,14.3769531 C75.9560547,14.7096371 75.990234,15.0240871 76.0585938,15.3203125 C76.1269535,15.6165379 76.2340487,15.8751617 76.3798828,16.0961914 C76.5257169,16.3172212 76.7114247,16.4915358 76.9370117,16.6191406 C77.1625988,16.7467454 77.430337,16.8105469 77.7402344,16.8105469 C78.0455744,16.8105469 78.311034,16.7467454 78.5366211,16.6191406 C78.7622082,16.4915358 78.9467766,16.3172212 79.090332,16.0961914 C79.2338874,15.8751617 79.3409827,15.6165379 79.4116211,15.3203125 C79.4822595,15.0240871 79.5175781,14.7096371 79.5175781,14.3769531 L79.5175781,14.2333984 C79.5175781,13.9052718 79.4822595,13.5942398 79.4116211,13.300293 C79.3409827,13.0063462 79.2327481,12.7488618 79.0869141,12.527832 C78.94108,12.3068023 78.7553722,12.130209 78.5297852,11.9980469 C78.3041981,11.8658848 78.0364599,11.7998047 77.7265625,11.7998047 C77.4166651,11.7998047 77.1512055,11.8658848 76.9301758,11.9980469 C76.709146,12.130209 76.5257169,12.3068023 76.3798828,12.527832 C76.2340487,12.7488618 76.1269535,13.0063462 76.0585938,13.300293 C75.990234,13.5942398 75.9560547,13.9052718 75.9560547,14.2333984 L75.9560547,14.3769531 Z M82.265625,14.2333984 C82.265625,13.6956353 82.3442375,13.1977562 82.5014648,12.7397461 C82.6586922,12.281736 82.8842759,11.8841163 83.1782227,11.546875 C83.4721694,11.2096337 83.8310526,10.9453135 84.2548828,10.7539062 C84.6787131,10.562499 85.1595025,10.4667969 85.6972656,10.4667969 C86.239586,10.4667969 86.7249328,10.562499 87.1533203,10.7539062 C87.5817079,10.9453135 87.9428696,11.2096337 88.2368164,11.546875 C88.5307632,11.8841163 88.7552076,12.281736 88.9101562,12.7397461 C89.0651049,13.1977562 89.1425781,13.6956353 89.1425781,14.2333984 L89.1425781,14.3769531 C89.1425781,14.9147162 89.0651049,15.4137347 88.9101562,15.8740234 C88.7552076,16.3343122 88.5307632,16.7319319 88.2368164,17.0668945 C87.9428696,17.4018571 87.5828472,17.6638988 87.1567383,17.8530273 C86.7306294,18.0421559 86.2487006,18.1367188 85.7109375,18.1367188 C85.1686171,18.1367188 84.6844097,18.0421559 84.2583008,17.8530273 C83.8321919,17.6638988 83.4721694,17.4018571 83.1782227,17.0668945 C82.8842759,16.7319319 82.6586922,16.3343122 82.5014648,15.8740234 C82.3442375,15.4137347 82.265625,14.9147162 82.265625,14.3769531 L82.265625,14.2333984 Z M83.9267578,14.3769531 C83.9267578,14.7096371 83.9609372,15.0240871 84.0292969,15.3203125 C84.0976566,15.6165379 84.2047519,15.8751617 84.3505859,16.0961914 C84.49642,16.3172212 84.6821278,16.4915358 84.9077148,16.6191406 C85.1333019,16.7467454 85.4010401,16.8105469 85.7109375,16.8105469 C86.0162776,16.8105469 86.2817372,16.7467454 86.5073242,16.6191406 C86.7329113,16.4915358 86.9174798,16.3172212 87.0610352,16.0961914 C87.2045906,15.8751617 87.3116858,15.6165379 87.3823242,15.3203125 C87.4529626,15.0240871 87.4882812,14.7096371 87.4882812,14.3769531 L87.4882812,14.2333984 C87.4882812,13.9052718 87.4529626,13.5942398 87.3823242,13.300293 C87.3116858,13.0063462 87.2034513,12.7488618 87.0576172,12.527832 C86.9117831,12.3068023 86.7260753,12.130209 86.5004883,11.9980469 C86.2749012,11.8658848 86.007163,11.7998047 85.6972656,11.7998047 C85.3873682,11.7998047 85.1219087,11.8658848 84.9008789,11.9980469 C84.6798492,12.130209 84.49642,12.3068023 84.3505859,12.527832 C84.2047519,12.7488618 84.0976566,13.0063462 84.0292969,13.300293 C83.9609372,13.5942398 83.9267578,13.9052718 83.9267578,14.2333984 L83.9267578,14.3769531 Z M92.9501953,14.828125 L92.2119141,15.5869141 L92.2119141,18 L90.5507812,18 L90.5507812,7.5 L92.2119141,7.5 L92.2119141,13.5566406 L92.7314453,12.9072266 L94.7753906,10.6035156 L96.7714844,10.6035156 L94.0234375,13.6865234 L97.0654297,18 L95.1445312,18 L92.9501953,14.828125 Z" id="Facebook" fill="#FFFFFF"></path>
                    <path d="M24.8965625,21 L11.1034375,21 C10.4965625,21 10,20.5034375 10,19.8965625 L10,6.1034375 C10,5.4965625 10.4965625,5 11.1034375,5 L24.8965625,5 C25.5034375,5 26,5.4965625 26,6.1034375 L26,19.8965625 C26,20.5034375 25.5034375,21 24.8965625,21 Z M23.51725,7.758625 L23.51725,10.51725 L21.0345,10.51725 C20.7310625,10.51725 20.4827813,10.7655313 20.4827813,11.0689688 L20.4827813,12.7241563 L23.2414063,12.7241563 L23.2414063,15.4827813 L20.4827813,15.4827813 L20.4827813,21 L17.7241563,21 L17.7241563,15.48275 L15.51725,15.48275 L15.51725,12.724125 L17.7241563,12.724125 L17.7241563,11.0689375 C17.7241563,9.331 19.0482813,7.89653125 20.758625,7.75859375 L23.51725,7.75859375 L23.51725,7.758625 Z" fill="#FFFFFF"></path>
                </g>
            </g>
        </g>
    </g>
</svg>