<?xml version="1.0" encoding="UTF-8"?>
<svg width="42px" height="42px" viewBox="0 0 42 42" version="1.1" xmlns="http://www.w3.org/2000/svg" xmlns:xlink="http://www.w3.org/1999/xlink">
    <!-- Generator: sketchtool 41.2 (35397) - http://www.bohemiancoding.com/sketch -->
    <title>1BDC0264-58A9-4394-A8F7-C69ADE58ACF5</title>
    <desc>Created with sketchtool.</desc>
    <defs></defs>
    <g id="Landing" stroke="none" stroke-width="1" fill="none" fill-rule="evenodd">
        <g id="Home-960" transform="translate(-483.000000, -1024.000000)">
            <g id="Footer" transform="translate(0.000000, 1000.000000)">
                <g id="Content" transform="translate(484.000000, 25.000000)">
                    <g id="footer-logo">
                        <path d="M30.46875,6.81821749e-16 C36.25,6.81821749e-16 40,3.75 40,9.53125 L40,30.46875 C40,36.25 36.25,40 30.46875,40 L9.53125,40 C3.75,40 0,36.25 0,30.46875 L0,9.53125 C0,3.75 3.75,6.81821752e-16 9.53125,6.81821752e-16 L30.46875,6.81821749e-16 Z" id="App-Icon-Shape" stroke="#79FFD7"></path>
                        <path d="M15.710322,8.63636364 C15.710322,10.4881629 16.8979167,12.0670455 18.5512311,12.6534091 L18.5512311,15.7386364 L15.2368371,15.7386364 C14.4523674,15.7386364 13.8163826,16.3746212 13.8163826,17.1590909 C13.8163826,17.9435606 14.4523674,18.5795455 15.2368371,18.5795455 L18.5512311,18.5795455 L18.5512311,29.8414773 C14.203125,29.2166667 10.7550189,25.7686553 10.130303,21.4204545 L10.283428,21.4204545 C11.0678977,21.4204545 11.7038826,20.7844697 11.7038826,20 C11.7038826,19.2155303 11.0678977,18.5795455 10.283428,18.5795455 L8.60795455,18.5795455 C7.82348485,18.5795455 7.1875,19.2155303 7.1875,20 C7.1875,26.5691288 12.1680871,31.9960227 18.5512311,32.7049242 L18.5512311,34.2045455 C18.5512311,34.9890152 19.1872159,35.625 19.9716856,35.625 C20.7561553,35.625 21.3921402,34.9890152 21.3921402,34.2045455 L21.3921402,32.7049242 C27.7752841,31.9960227 32.7558712,26.5691288 32.7558712,20 C32.7558712,19.2155303 32.1198864,18.5795455 31.3354167,18.5795455 L29.6599432,18.5795455 C28.8754735,18.5795455 28.2394886,19.2155303 28.2394886,20 C28.2394886,20.7844697 28.8754735,21.4204545 29.6599432,21.4204545 L29.8130682,21.4204545 C29.1883523,25.7686553 25.7402462,29.2166667 21.3921402,29.8414773 L21.3921402,18.5795455 L24.7065341,18.5795455 C25.4910038,18.5795455 26.1269886,17.9435606 26.1269886,17.1590909 C26.1269886,16.3746212 25.4910038,15.7386364 24.7065341,15.7386364 L21.3921402,15.7386364 L21.3921402,12.6534091 C23.0454545,12.0670455 24.2330492,10.4881629 24.2330492,8.63636364 C24.2330492,6.28664773 22.3213068,4.375 19.9716856,4.375 C17.6220644,4.375 15.710322,6.28674242 15.710322,8.63636364 L15.710322,8.63636364 Z M19.9716856,7.21590909 C20.7549242,7.21590909 21.3921402,7.853125 21.3921402,8.63636364 C21.3921402,9.41960227 20.7549242,10.0568182 19.9716856,10.0568182 C19.188447,10.0568182 18.5512311,9.41960227 18.5512311,8.63636364 C18.5512311,7.853125 19.188447,7.21590909 19.9716856,7.21590909 L19.9716856,7.21590909 Z" id="icon" fill="#79FFD7"></path>
                    </g>
                </g>
            </g>
        </g>
    </g>
</svg>