<?xml version="1.0" encoding="UTF-8"?>
<svg width="202px" height="60px" viewBox="0 0 202 60" version="1.1" xmlns="http://www.w3.org/2000/svg" xmlns:xlink="http://www.w3.org/1999/xlink">
    <!-- Generator: sketchtool 41.2 (35397) - http://www.bohemiancoding.com/sketch -->
    <title>2F28167B-C88F-4556-994E-66F354B604B0</title>
    <desc>Created with sketchtool.</desc>
    <defs></defs>
    <g id="Landing" stroke="none" stroke-width="1" fill="none" fill-rule="evenodd">
        <g id="Home-Desktop" transform="translate(-917.000000, -386.000000)">
            <g id="top">
                <g id="google-play-green-button" transform="translate(917.000000, 386.000000)">
                    <rect id="Button" fill="#454C5F" x="0" y="0" width="202" height="60" rx="10"></rect>
                    <path d="M73.1759011,32.7986612 L63.8214212,32.7986612 L63.8214212,35.5743563 L70.4558187,35.5743563 C70.1279094,39.4670443 66.8893924,41.1269825 63.8325438,41.1269825 C59.9215242,41.1269825 56.5087539,38.0497425 56.5087539,33.7366632 C56.5087539,29.5352214 59.7621009,26.2993821 63.8409887,26.2993821 C66.9882595,26.2993821 68.8426365,28.3055613 68.8426365,28.3055613 L70.7864058,26.2927909 C70.7864058,26.2927909 68.2916581,23.515654 63.7417096,23.515654 C57.9480947,23.515448 53.4659114,28.4054583 53.4659114,33.6872297 C53.4659114,38.8627188 57.6819773,43.9092688 63.8893924,43.9092688 C69.3487127,43.9090628 73.3450051,40.169413 73.3450051,34.638826 C73.3450051,33.4719876 73.1756952,32.7978373 73.1756952,32.7978373 L73.1759011,32.7986612" id="Fill-30" fill="#60687E"></path>
                    <path d="M81.1279094,30.7883625 C77.2891864,30.7883625 74.538414,33.7889804 74.538414,37.2892894 C74.538414,40.8406797 77.2063852,43.8975283 81.1726056,43.8975283 C84.7631308,43.8975283 87.7046344,41.1529351 87.7046344,37.3654995 C87.7046344,33.0239959 84.2830072,30.7883625 81.1279094,30.7883625 Z M81.1658084,33.3628218 C83.053553,33.3628218 84.8422245,34.8888774 84.8422245,37.3479918 C84.8422245,39.7547889 83.0609681,41.3245108 81.1571576,41.3245108 C79.0652935,41.3245108 77.4148301,39.6491246 77.4148301,37.3290422 C77.4148301,35.0583934 79.0449022,33.3628218 81.1658084,33.3628218 L81.1658084,33.3628218 Z" id="Fill-31" fill="#60687E"></path>
                    <path d="M95.6142122,30.7883625 C91.7756952,30.7883625 89.0247168,33.7889804 89.0247168,37.2892894 C89.0247168,40.8406797 91.6928939,43.8975283 95.6593203,43.8975283 C99.2496395,43.8975283 102.191143,41.1529351 102.191143,37.3654995 C102.191143,33.0239959 98.7697219,30.7883625 95.6142122,30.7883625 Z M95.6523172,33.3628218 C97.5398558,33.3628218 99.3287333,34.8888774 99.3287333,37.3479918 C99.3287333,39.7547889 97.5474768,41.3245108 95.6434604,41.3245108 C93.5518023,41.3245108 91.9015448,39.6491246 91.9015448,37.3290422 C91.9015448,35.0583934 93.5312049,33.3628218 95.6523172,33.3628218 L95.6523172,33.3628218 Z" id="Fill-32" fill="#60687E"></path>
                    <path d="M109.803502,30.7951596 C106.280536,30.7951596 103.510814,33.8810505 103.510814,37.3444902 C103.510814,41.2897013 106.721524,43.9061792 109.742739,43.9061792 C111.611123,43.9061792 112.604325,43.1644696 113.33759,42.3133883 L113.33759,43.6058702 C113.33759,45.8672503 111.964573,47.2213182 109.89207,47.2213182 C107.89001,47.2213182 106.885685,45.7327497 106.536766,44.8878476 L104.017508,45.9409887 C104.911432,47.830793 106.710402,49.8013388 109.912873,49.8013388 C113.416066,49.8013388 116.085891,47.5949537 116.085891,42.9673532 L116.085891,31.1891864 L113.337796,31.1891864 L113.337796,32.2995881 C112.492894,31.3889804 111.337384,30.7953656 109.803502,30.7953656 L109.803502,30.7951596 Z M110.058496,33.3646756 C111.785994,33.3646756 113.559835,34.8396498 113.559835,37.3582904 C113.559835,39.9185376 111.789701,41.3296601 110.020391,41.3296601 C108.142327,41.3296601 106.394439,39.8044284 106.394439,37.3828012 C106.394439,34.8664264 108.209681,33.3646756 110.058496,33.3646756 L110.058496,33.3646756 Z" id="Fill-33" fill="#60687E"></path>
                    <path d="M128.882595,30.7795057 C125.559217,30.7795057 122.768898,33.4237899 122.768898,37.3253347 C122.768898,41.453862 125.879094,43.9024717 129.201854,43.9024717 C131.975077,43.9024717 133.677034,42.3854789 134.692894,41.0258496 L132.427188,39.5183316 C131.839135,40.430793 130.856025,41.322863 129.215654,41.322863 C127.373223,41.3226571 126.52585,40.3135942 126.000824,39.3362513 L134.789907,35.6892894 L134.333471,34.6204943 C133.484449,32.5276004 131.504016,30.7799176 128.882801,30.7799176 L128.882595,30.7795057 Z M128.997322,33.3004119 C130.194851,33.3004119 131.056643,33.9370752 131.422657,34.7004119 L125.553244,37.153553 C125.300309,35.2544799 127.099691,33.3004119 128.997116,33.3004119 L128.997322,33.3004119 L128.997322,33.3004119 Z" id="Fill-34" fill="#60687E"></path>
                    <polygon id="Fill-35" fill="#60687E" points="118.289804 43.5131823 121.176725 43.5131823 121.176725 24.1935118 118.289804 24.1935118"></polygon>
                    <polygon id="Fill-36" fill="#60687E" points="156.995881 43.5131823 159.882801 43.5131823 159.882801 24.1935118 156.995881 24.1935118"></polygon>
                    <polygon id="Fill-37" fill="#60687E" points="141.686715 43.5131823 144.573635 43.5131823 144.573635 24.1935118 141.686715 24.1935118"></polygon>
                    <path d="M144.573635,27.0804325 L144.573635,33.615757 L148.670031,33.615757 C150.461792,33.615757 151.938002,32.1397528 151.938002,30.3479918 C151.938002,28.5564367 150.461792,27.0804325 148.670031,27.0804325 L144.573635,27.0804325 Z M141.686715,24.1933059 L148.670031,24.1933059 C152.055201,24.1933059 154.824717,26.9630278 154.824717,30.3479918 C154.824717,33.7331617 152.055201,36.5024717 148.670031,36.5024717 L141.686715,36.5024717 L141.686715,24.1933059 L141.686715,24.1933059 Z" id="Fill-38" fill="#60687E"></path>
                    <polyline id="Fill-39" fill="#60687E" points="181.197322 49.8013388 189.556334 30.7799176 186.40309 30.7799176 178.044284 49.8013388 181.197322 49.8013388"></polyline>
                    <polyline id="Fill-40" fill="#60687E" points="182.130381 45.4474768 175.684861 30.7799176 178.837899 30.7799176 183.283625 40.8960865 182.130381 40.8960865 182.130381 45.4474768"></polyline>
                    <path d="M171.698043,37.9286303 C171.328733,39.5352214 170.083213,40.6907312 168.503193,41.1212152 C165.164985,42.0312049 164.334501,36.607312 169.295366,37.3531411 C170.147065,37.4559217 170.890216,37.6670443 171.698043,37.9286303 Z M171.698043,43.5131823 L174.584964,43.5131823 L174.584964,36.5648816 C175.036663,29.3984552 165.950978,27.7127703 162.513079,32.8789907 L164.836251,34.4380021 C166.517199,31.4989701 171.313903,32.1751802 171.629248,35.3247168 C170.187642,34.9430484 168.630278,34.6660144 167.207415,34.8099897 C164.986406,35.0347065 163.084861,36.4454171 162.782698,38.7556128 C162.619361,40.0036045 162.898043,41.5428424 163.769516,42.4806385 C165.127703,43.9414006 167.35757,44.138517 169.189495,43.6394439 C170.220803,43.3580844 171.03275,42.7455201 171.698043,41.953965 L171.698043,43.5131823 L171.698043,43.5131823 Z" id="Fill-41" fill="#60687E"></path>
                    <path d="M18.176725,19.1805355 L33.0208033,34.0023687 L18.2479918,48.953553 C17.8168898,48.6802266 17.5857878,48.0868177 17.5818744,47.3203913 C17.5744593,45.8513903 17.4568486,22.5333677 17.4479918,20.7838311 C17.4438723,19.9446962 17.7491246,19.4326468 18.176725,19.1805355 Z M37.915757,29.0485067 L19.8652935,19.2007209 C19.6725026,19.0952626 19.453553,19.0312049 19.2354274,19.0025747 L33.6348095,33.3809475 L37.915757,29.0485067 Z M38.7184346,38.4567456 L34.2531411,33.9982492 L38.7139032,29.4839341 L44.8568486,32.8347065 C46.3701339,33.6598352 45.5960865,34.692173 44.8568486,35.0969104 L38.7184346,38.4567456 Z M19.4716787,48.9582904 C19.5975283,48.9109166 19.7289392,48.8505664 19.8652935,48.7760041 L37.9194645,38.8938208 L33.6391349,34.6198764 L19.4716787,48.9582904 L19.4716787,48.9582904 Z" id="Fill-49" fill="#60687E"></path>
                    <path d="M62.444,15.9346241 C62.0199979,16.4466267 61.5200029,16.8366228 60.944,17.1046241 C60.3679971,17.3726254 59.7240036,17.5066241 59.012,17.5066241 C58.3719968,17.5066241 57.7780027,17.3906253 57.23,17.1586241 C56.6819973,16.9266229 56.208002,16.6106261 55.808,16.2106241 C55.407998,15.8106221 55.0920012,15.3366268 54.86,14.7886241 C54.6279988,14.2406214 54.512,13.6506273 54.512,13.0186241 C54.512,12.3866209 54.6279988,11.7966268 54.86,11.2486241 C55.0920012,10.7006214 55.407998,10.2266261 55.808,9.8266241 C56.208002,9.4266221 56.6819973,9.11062526 57.23,8.8786241 C57.7780027,8.64662294 58.3719968,8.5306241 59.012,8.5306241 C59.7000034,8.5306241 60.3059974,8.6506229 60.83,8.8906241 C61.3540026,9.1306253 61.819998,9.47862182 62.228,9.9346241 L61.088,11.0386241 C60.8319987,10.7426226 60.5380017,10.506625 60.206,10.3306241 C59.8739983,10.1546232 59.4800023,10.0666241 59.024,10.0666241 C58.623998,10.0666241 58.2480018,10.1366234 57.896,10.2766241 C57.5439982,10.4166248 57.2380013,10.6146228 56.978,10.8706241 C56.7179987,11.1266254 56.5120008,11.4366223 56.36,11.8006241 C56.2079992,12.1646259 56.132,12.5706219 56.132,13.0186241 C56.132,13.4666263 56.2079992,13.8726223 56.36,14.2366241 C56.5120008,14.6006259 56.7179987,14.9106228 56.978,15.1666241 C57.2380013,15.4226254 57.5439982,15.6206234 57.896,15.7606241 C58.2480018,15.9006248 58.623998,15.9706241 59.024,15.9706241 C59.5040024,15.9706241 59.9299981,15.8726251 60.302,15.6766241 C60.6740019,15.4806231 61.0039986,15.2026259 61.292,14.8426241 L62.444,15.9346241 Z M67.688,17.5066241 C67.0479968,17.5066241 66.4540027,17.3906253 65.906,17.1586241 C65.3579973,16.9266229 64.884002,16.6086261 64.484,16.2046241 C64.083998,15.8006221 63.7700011,15.3246268 63.542,14.7766241 C63.3139989,14.2286214 63.2,13.6426272 63.2,13.0186241 C63.2,12.394621 63.3139989,11.8086268 63.542,11.2606241 C63.7700011,10.7126214 64.083998,10.2366261 64.484,9.8326241 C64.884002,9.42862208 65.3579973,9.11062526 65.906,8.8786241 C66.4540027,8.64662294 67.0479968,8.5306241 67.688,8.5306241 C68.3280032,8.5306241 68.9219973,8.64662294 69.47,8.8786241 C70.0180027,9.11062526 70.491998,9.42862208 70.892,9.8326241 C71.292002,10.2366261 71.6059989,10.7126214 71.834,11.2606241 C72.0620011,11.8086268 72.176,12.394621 72.176,13.0186241 C72.176,13.6426272 72.0620011,14.2286214 71.834,14.7766241 C71.6059989,15.3246268 71.292002,15.8006221 70.892,16.2046241 C70.491998,16.6086261 70.0180027,16.9266229 69.47,17.1586241 C68.9219973,17.3906253 68.3280032,17.5066241 67.688,17.5066241 Z M67.688,15.9706241 C68.088002,15.9706241 68.4619983,15.8986248 68.81,15.7546241 C69.1580017,15.6106234 69.4619987,15.4106254 69.722,15.1546241 C69.9820013,14.8986228 70.1859993,14.5886259 70.334,14.2246241 C70.4820007,13.8606223 70.556,13.4586263 70.556,13.0186241 C70.556,12.5786219 70.4820007,12.1766259 70.334,11.8126241 C70.1859993,11.4486223 69.9820013,11.1386254 69.722,10.8826241 C69.4619987,10.6266228 69.1580017,10.4266248 68.81,10.2826241 C68.4619983,10.1386234 68.088002,10.0666241 67.688,10.0666241 C67.287998,10.0666241 66.9140017,10.1386234 66.566,10.2826241 C66.2179983,10.4266248 65.9140013,10.6266228 65.654,10.8826241 C65.3939987,11.1386254 65.1900007,11.4486223 65.042,11.8126241 C64.8939993,12.1766259 64.82,12.5786219 64.82,13.0186241 C64.82,13.4586263 64.8939993,13.8606223 65.042,14.2246241 C65.1900007,14.5886259 65.3939987,14.8986228 65.654,15.1546241 C65.9140013,15.4106254 66.2179983,15.6106234 66.566,15.7546241 C66.9140017,15.8986248 67.287998,15.9706241 67.688,15.9706241 Z M73.484,8.7226241 L75.08,8.7226241 L77.708,13.2706241 L77.804,13.2706241 L80.432,8.7226241 L82.04,8.7226241 L82.04,17.3146241 L80.432,17.3146241 L80.432,13.0786241 L80.528,11.6386241 L80.432,11.6386241 L78.248,15.4906241 L77.276,15.4906241 L75.08,11.6386241 L74.984,11.6386241 L75.08,13.0786241 L75.08,17.3146241 L73.484,17.3146241 L73.484,8.7226241 Z M83.768,8.7226241 L85.388,8.7226241 L85.388,17.3146241 L83.768,17.3146241 L83.768,8.7226241 Z M87.116,8.7226241 L89,8.7226241 L92.456,14.4826241 L92.552,14.4826241 L92.456,12.8266241 L92.456,8.7226241 L94.064,8.7226241 L94.064,17.3146241 L92.36,17.3146241 L88.712,11.2306241 L88.616,11.2306241 L88.712,12.8866241 L88.712,17.3146241 L87.116,17.3146241 L87.116,8.7226241 Z M99.752,12.5986241 L103.964,12.5986241 C103.988,12.6946246 104.008,12.8106234 104.024,12.9466241 C104.04,13.0826248 104.048,13.2186234 104.048,13.3546241 C104.048,13.9066269 103.964001,14.4266217 103.796,14.9146241 C103.627999,15.4026265 103.364002,15.8386222 103.004,16.2226241 C102.619998,16.6306261 102.160003,16.946623 101.624,17.1706241 C101.087997,17.3946252 100.476003,17.5066241 99.788,17.5066241 C99.1639969,17.5066241 98.5760028,17.3946252 98.024,17.1706241 C97.4719972,16.946623 96.992002,16.6346261 96.584,16.2346241 C96.175998,15.8346221 95.8520012,15.3606268 95.612,14.8126241 C95.3719988,14.2646214 95.252,13.6666273 95.252,13.0186241 C95.252,12.3706209 95.3719988,11.7726268 95.612,11.2246241 C95.8520012,10.6766214 96.175998,10.2026261 96.584,9.8026241 C96.992002,9.4026221 97.4719972,9.09062522 98.024,8.8666241 C98.5760028,8.64262298 99.1639969,8.5306241 99.788,8.5306241 C100.484003,8.5306241 101.105997,8.6506229 101.654,8.8906241 C102.202003,9.1306253 102.671998,9.46262198 103.064,9.8866241 L101.948,10.9786241 C101.667999,10.6826226 101.356002,10.4566249 101.012,10.3006241 C100.667998,10.1446233 100.256002,10.0666241 99.776,10.0666241 C99.383998,10.0666241 99.0120018,10.1366234 98.66,10.2766241 C98.3079982,10.4166248 98.0000013,10.6146228 97.736,10.8706241 C97.4719987,11.1266254 97.2620008,11.4366223 97.106,11.8006241 C96.9499992,12.1646259 96.872,12.5706219 96.872,13.0186241 C96.872,13.4666263 96.9499992,13.8726223 97.106,14.2366241 C97.2620008,14.6006259 97.4739987,14.9106228 97.742,15.1666241 C98.0100013,15.4226254 98.3199982,15.6206234 98.672,15.7606241 C99.0240018,15.9006248 99.399998,15.9706241 99.8,15.9706241 C100.256002,15.9706241 100.641998,15.9046248 100.958,15.7726241 C101.274002,15.6406234 101.543999,15.4706251 101.768,15.2626241 C101.928001,15.1186234 102.065999,14.9366252 102.182,14.7166241 C102.298001,14.496623 102.388,14.2506255 102.452,13.9786241 L99.752,13.9786241 L99.752,12.5986241 Z M110.3,17.5066241 C109.931998,17.5066241 109.580002,17.4546246 109.244,17.3506241 C108.907998,17.2466236 108.600001,17.0906251 108.32,16.8826241 C108.039999,16.6746231 107.796001,16.4206256 107.588,16.1206241 C107.379999,15.8206226 107.216001,15.4706261 107.096,15.0706241 L108.62,14.4706241 C108.732001,14.9026263 108.927999,15.2606227 109.208,15.5446241 C109.488001,15.8286255 109.855998,15.9706241 110.312,15.9706241 C110.480001,15.9706241 110.641999,15.9486243 110.798,15.9046241 C110.954001,15.8606239 111.093999,15.7966245 111.218,15.7126241 C111.342001,15.6286237 111.44,15.5226247 111.512,15.3946241 C111.584,15.2666235 111.62,15.1186249 111.62,14.9506241 C111.62,14.7906233 111.592,14.6466247 111.536,14.5186241 C111.48,14.3906235 111.386001,14.2706247 111.254,14.1586241 C111.121999,14.0466235 110.950001,13.9386246 110.738,13.8346241 C110.525999,13.7306236 110.264002,13.6226247 109.952,13.5106241 L109.424,13.3186241 C109.191999,13.2386237 108.958001,13.1306248 108.722,12.9946241 C108.485999,12.8586234 108.272001,12.6946251 108.08,12.5026241 C107.887999,12.3106231 107.730001,12.0846254 107.606,11.8246241 C107.481999,11.5646228 107.42,11.2706257 107.42,10.9426241 C107.42,10.6066224 107.485999,10.2926256 107.618,10.0006241 C107.750001,9.70862264 107.937999,9.4526252 108.182,9.2326241 C108.426001,9.012623 108.717998,8.84062472 109.058,8.7166241 C109.398002,8.59262348 109.775998,8.5306241 110.192,8.5306241 C110.624002,8.5306241 110.997998,8.58862352 111.314,8.7046241 C111.630002,8.82062468 111.897999,8.9686232 112.118,9.1486241 C112.338001,9.328625 112.515999,9.52662302 112.652,9.7426241 C112.788001,9.95862518 112.888,10.1626231 112.952,10.3546241 L111.524,10.9546241 C111.444,10.7146229 111.298001,10.4986251 111.086,10.3066241 C110.873999,10.1146231 110.584002,10.0186241 110.216,10.0186241 C109.863998,10.0186241 109.572001,10.1006233 109.34,10.2646241 C109.107999,10.4286249 108.992,10.6426228 108.992,10.9066241 C108.992,11.1626254 109.103999,11.3806232 109.328,11.5606241 C109.552001,11.740625 109.907998,11.9146233 110.396,12.0826241 L110.936,12.2626241 C111.280002,12.3826247 111.593999,12.5206233 111.878,12.6766241 C112.162001,12.8326249 112.405999,13.018623 112.61,13.2346241 C112.814001,13.4506252 112.969999,13.6966227 113.078,13.9726241 C113.186001,14.2486255 113.24,14.5666223 113.24,14.9266241 C113.24,15.3746263 113.150001,15.7606225 112.97,16.0846241 C112.789999,16.4086257 112.560001,16.6746231 112.28,16.8826241 C111.999999,17.0906251 111.684002,17.2466236 111.332,17.3506241 C110.979998,17.4546246 110.636002,17.5066241 110.3,17.5066241 Z M118.64,17.5066241 C117.999997,17.5066241 117.406003,17.3906253 116.858,17.1586241 C116.309997,16.9266229 115.836002,16.6086261 115.436,16.2046241 C115.035998,15.8006221 114.722001,15.3246268 114.494,14.7766241 C114.265999,14.2286214 114.152,13.6426272 114.152,13.0186241 C114.152,12.394621 114.265999,11.8086268 114.494,11.2606241 C114.722001,10.7126214 115.035998,10.2366261 115.436,9.8326241 C115.836002,9.42862208 116.309997,9.11062526 116.858,8.8786241 C117.406003,8.64662294 117.999997,8.5306241 118.64,8.5306241 C119.280003,8.5306241 119.873997,8.64662294 120.422,8.8786241 C120.970003,9.11062526 121.443998,9.42862208 121.844,9.8326241 C122.244002,10.2366261 122.557999,10.7126214 122.786,11.2606241 C123.014001,11.8086268 123.128,12.394621 123.128,13.0186241 C123.128,13.6426272 123.014001,14.2286214 122.786,14.7766241 C122.557999,15.3246268 122.244002,15.8006221 121.844,16.2046241 C121.443998,16.6086261 120.970003,16.9266229 120.422,17.1586241 C119.873997,17.3906253 119.280003,17.5066241 118.64,17.5066241 Z M118.64,15.9706241 C119.040002,15.9706241 119.413998,15.8986248 119.762,15.7546241 C120.110002,15.6106234 120.413999,15.4106254 120.674,15.1546241 C120.934001,14.8986228 121.137999,14.5886259 121.286,14.2246241 C121.434001,13.8606223 121.508,13.4586263 121.508,13.0186241 C121.508,12.5786219 121.434001,12.1766259 121.286,11.8126241 C121.137999,11.4486223 120.934001,11.1386254 120.674,10.8826241 C120.413999,10.6266228 120.110002,10.4266248 119.762,10.2826241 C119.413998,10.1386234 119.040002,10.0666241 118.64,10.0666241 C118.239998,10.0666241 117.866002,10.1386234 117.518,10.2826241 C117.169998,10.4266248 116.866001,10.6266228 116.606,10.8826241 C116.345999,11.1386254 116.142001,11.4486223 115.994,11.8126241 C115.845999,12.1766259 115.772,12.5786219 115.772,13.0186241 C115.772,13.4586263 115.845999,13.8606223 115.994,14.2246241 C116.142001,14.5886259 116.345999,14.8986228 116.606,15.1546241 C116.866001,15.4106254 117.169998,15.6106234 117.518,15.7546241 C117.866002,15.8986248 118.239998,15.9706241 118.64,15.9706241 Z M128.384,17.5066241 C127.743997,17.5066241 127.150003,17.3906253 126.602,17.1586241 C126.053997,16.9266229 125.580002,16.6086261 125.18,16.2046241 C124.779998,15.8006221 124.466001,15.3246268 124.238,14.7766241 C124.009999,14.2286214 123.896,13.6426272 123.896,13.0186241 C123.896,12.394621 124.009999,11.8086268 124.238,11.2606241 C124.466001,10.7126214 124.779998,10.2366261 125.18,9.8326241 C125.580002,9.42862208 126.053997,9.11062526 126.602,8.8786241 C127.150003,8.64662294 127.743997,8.5306241 128.384,8.5306241 C129.024003,8.5306241 129.617997,8.64662294 130.166,8.8786241 C130.714003,9.11062526 131.187998,9.42862208 131.588,9.8326241 C131.988002,10.2366261 132.301999,10.7126214 132.53,11.2606241 C132.758001,11.8086268 132.872,12.394621 132.872,13.0186241 C132.872,13.6426272 132.758001,14.2286214 132.53,14.7766241 C132.301999,15.3246268 131.988002,15.8006221 131.588,16.2046241 C131.187998,16.6086261 130.714003,16.9266229 130.166,17.1586241 C129.617997,17.3906253 129.024003,17.5066241 128.384,17.5066241 Z M128.384,15.9706241 C128.784002,15.9706241 129.157998,15.8986248 129.506,15.7546241 C129.854002,15.6106234 130.157999,15.4106254 130.418,15.1546241 C130.678001,14.8986228 130.881999,14.5886259 131.03,14.2246241 C131.178001,13.8606223 131.252,13.4586263 131.252,13.0186241 C131.252,12.5786219 131.178001,12.1766259 131.03,11.8126241 C130.881999,11.4486223 130.678001,11.1386254 130.418,10.8826241 C130.157999,10.6266228 129.854002,10.4266248 129.506,10.2826241 C129.157998,10.1386234 128.784002,10.0666241 128.384,10.0666241 C127.983998,10.0666241 127.610002,10.1386234 127.262,10.2826241 C126.913998,10.4266248 126.610001,10.6266228 126.35,10.8826241 C126.089999,11.1386254 125.886001,11.4486223 125.738,11.8126241 C125.589999,12.1766259 125.516,12.5786219 125.516,13.0186241 C125.516,13.4586263 125.589999,13.8606223 125.738,14.2246241 C125.886001,14.5886259 126.089999,14.8986228 126.35,15.1546241 C126.610001,15.4106254 126.913998,15.6106234 127.262,15.7546241 C127.610002,15.8986248 127.983998,15.9706241 128.384,15.9706241 Z M134.18,8.7226241 L136.064,8.7226241 L139.52,14.4826241 L139.616,14.4826241 L139.52,12.8266241 L139.52,8.7226241 L141.128,8.7226241 L141.128,17.3146241 L139.424,17.3146241 L135.776,11.2306241 L135.68,11.2306241 L135.776,12.8866241 L135.776,17.3146241 L134.18,17.3146241 L134.18,8.7226241 Z M149.324,17.5066241 C148.683997,17.5066241 148.090003,17.3906253 147.542,17.1586241 C146.993997,16.9266229 146.520002,16.6086261 146.12,16.2046241 C145.719998,15.8006221 145.406001,15.3246268 145.178,14.7766241 C144.949999,14.2286214 144.836,13.6426272 144.836,13.0186241 C144.836,12.394621 144.949999,11.8086268 145.178,11.2606241 C145.406001,10.7126214 145.719998,10.2366261 146.12,9.8326241 C146.520002,9.42862208 146.993997,9.11062526 147.542,8.8786241 C148.090003,8.64662294 148.683997,8.5306241 149.324,8.5306241 C149.964003,8.5306241 150.557997,8.64662294 151.106,8.8786241 C151.654003,9.11062526 152.127998,9.42862208 152.528,9.8326241 C152.928002,10.2366261 153.241999,10.7126214 153.47,11.2606241 C153.698001,11.8086268 153.812,12.394621 153.812,13.0186241 C153.812,13.6426272 153.698001,14.2286214 153.47,14.7766241 C153.241999,15.3246268 152.928002,15.8006221 152.528,16.2046241 C152.127998,16.6086261 151.654003,16.9266229 151.106,17.1586241 C150.557997,17.3906253 149.964003,17.5066241 149.324,17.5066241 Z M149.324,15.9706241 C149.724002,15.9706241 150.097998,15.8986248 150.446,15.7546241 C150.794002,15.6106234 151.097999,15.4106254 151.358,15.1546241 C151.618001,14.8986228 151.821999,14.5886259 151.97,14.2246241 C152.118001,13.8606223 152.192,13.4586263 152.192,13.0186241 C152.192,12.5786219 152.118001,12.1766259 151.97,11.8126241 C151.821999,11.4486223 151.618001,11.1386254 151.358,10.8826241 C151.097999,10.6266228 150.794002,10.4266248 150.446,10.2826241 C150.097998,10.1386234 149.724002,10.0666241 149.324,10.0666241 C148.923998,10.0666241 148.550002,10.1386234 148.202,10.2826241 C147.853998,10.4266248 147.550001,10.6266228 147.29,10.8826241 C147.029999,11.1386254 146.826001,11.4486223 146.678,11.8126241 C146.529999,12.1766259 146.456,12.5786219 146.456,13.0186241 C146.456,13.4586263 146.529999,13.8606223 146.678,14.2246241 C146.826001,14.5886259 147.029999,14.8986228 147.29,15.1546241 C147.550001,15.4106254 147.853998,15.6106234 148.202,15.7546241 C148.550002,15.8986248 148.923998,15.9706241 149.324,15.9706241 Z M155.12,8.7226241 L157.004,8.7226241 L160.46,14.4826241 L160.556,14.4826241 L160.46,12.8266241 L160.46,8.7226241 L162.068,8.7226241 L162.068,17.3146241 L160.364,17.3146241 L156.716,11.2306241 L156.62,11.2306241 L156.716,12.8866241 L156.716,17.3146241 L155.12,17.3146241 L155.12,8.7226241 Z" id="COMING-SOON-ON" fill="#60687E"></path>
                </g>
            </g>
        </g>
    </g>
</svg>