<?xml version="1.0" encoding="UTF-8"?>
<svg width="110px" height="26px" viewBox="0 0 110 26" version="1.1" xmlns="http://www.w3.org/2000/svg" xmlns:xlink="http://www.w3.org/1999/xlink">
    <!-- Generator: sketchtool 41.2 (35397) - http://www.bohemiancoding.com/sketch -->
    <title>32E438D2-1763-4293-B25D-1DA581E3DA6A</title>
    <desc>Created with sketchtool.</desc>
    <defs></defs>
    <g id="Landing" stroke="none" stroke-width="1" fill="none" fill-rule="evenodd">
        <g id="Home-Desktop" transform="translate(-665.000000, -1307.000000)">
            <g id="contacts" transform="translate(0.000000, 1030.000000)">
                <g id="twitter" transform="translate(665.000000, 277.000000)">
                    <rect id="button" fill="#1DA1F2" x="0" y="0" width="110" height="26" rx="5"></rect>
                    <path d="M53.203125,9.44140625 L50.0996094,9.44140625 L50.0996094,18 L48.3837891,18 L48.3837891,9.44140625 L45.3076172,9.44140625 L45.3076172,8.046875 L53.203125,8.046875 L53.203125,9.44140625 Z M60.5244141,15.7099609 L61.7001953,10.6035156 L63.3203125,10.6035156 L61.3037109,18 L59.9365234,18 L58.3505859,12.9208984 L56.7919922,18 L55.4248047,18 L53.4013672,10.6035156 L55.0214844,10.6035156 L56.2177734,15.6552734 L57.7353516,10.6035156 L58.9863281,10.6035156 L60.5244141,15.7099609 Z M66.1982422,18 L64.5371094,18 L64.5371094,10.6035156 L66.1982422,10.6035156 L66.1982422,18 Z M64.4345703,8.68261719 C64.4345703,8.42740758 64.5154614,8.21549563 64.6772461,8.046875 C64.8390308,7.87825437 65.070311,7.79394531 65.3710938,7.79394531 C65.6718765,7.79394531 65.9042961,7.87825437 66.0683594,8.046875 C66.2324227,8.21549563 66.3144531,8.42740758 66.3144531,8.68261719 C66.3144531,8.93326948 66.2324227,9.14176349 66.0683594,9.30810547 C65.9042961,9.47444745 65.6718765,9.55761719 65.3710938,9.55761719 C65.070311,9.55761719 64.8390308,9.47444745 64.6772461,9.30810547 C64.5154614,9.14176349 64.4345703,8.93326948 64.4345703,8.68261719 Z M70.0878906,8.80566406 L70.0878906,10.6035156 L71.3935547,10.6035156 L71.3935547,11.8339844 L70.0878906,11.8339844 L70.0878906,15.9628906 C70.0878906,16.1315113 70.1061196,16.2682286 70.1425781,16.3730469 C70.1790366,16.4778651 70.231445,16.5587562 70.2998047,16.6157227 C70.3681644,16.6726891 70.4490555,16.7114257 70.5424805,16.7319336 C70.6359054,16.7524415 70.7395828,16.7626953 70.8535156,16.7626953 C70.9674485,16.7626953 71.0779617,16.7547201 71.1850586,16.7387695 C71.2921555,16.7228189 71.3753252,16.7080079 71.4345703,16.6943359 L71.4345703,17.9794922 C71.3024082,18.0159507 71.1486011,18.0512694 70.9731445,18.0854492 C70.7976879,18.1196291 70.5869153,18.1367188 70.3408203,18.1367188 C70.0673814,18.1367188 69.813315,18.1002608 69.5786133,18.0273438 C69.3439116,17.9544267 69.1411141,17.8359383 68.9702148,17.671875 C68.7993156,17.5078117 68.6660161,17.2936211 68.5703125,17.0292969 C68.4746089,16.7649726 68.4267578,16.4414082 68.4267578,16.0585938 L68.4267578,11.8339844 L67.2099609,11.8339844 L67.2099609,10.6035156 L68.4267578,10.6035156 L68.4267578,8.80566406 L70.0878906,8.80566406 Z M74.7431641,8.80566406 L74.7431641,10.6035156 L76.0488281,10.6035156 L76.0488281,11.8339844 L74.7431641,11.8339844 L74.7431641,15.9628906 C74.7431641,16.1315113 74.761393,16.2682286 74.7978516,16.3730469 C74.8343101,16.4778651 74.8867184,16.5587562 74.9550781,16.6157227 C75.0234378,16.6726891 75.104329,16.7114257 75.1977539,16.7319336 C75.2911789,16.7524415 75.3948562,16.7626953 75.5087891,16.7626953 C75.6227219,16.7626953 75.7332351,16.7547201 75.840332,16.7387695 C75.9474289,16.7228189 76.0305987,16.7080079 76.0898438,16.6943359 L76.0898438,17.9794922 C75.9576816,18.0159507 75.8038746,18.0512694 75.628418,18.0854492 C75.4529614,18.1196291 75.2421887,18.1367188 74.9960938,18.1367188 C74.7226549,18.1367188 74.4685884,18.1002608 74.2338867,18.0273438 C73.999185,17.9544267 73.7963876,17.8359383 73.6254883,17.671875 C73.454589,17.5078117 73.3212895,17.2936211 73.2255859,17.0292969 C73.1298823,16.7649726 73.0820312,16.4414082 73.0820312,16.0585938 L73.0820312,11.8339844 L71.8652344,11.8339844 L71.8652344,10.6035156 L73.0820312,10.6035156 L73.0820312,8.80566406 L74.7431641,8.80566406 Z M80.5742188,18.1367188 C80.027341,18.1367188 79.5351584,18.0455738 79.0976562,17.8632812 C78.6601541,17.6809887 78.2887385,17.4303401 77.9833984,17.1113281 C77.6780584,16.7923161 77.4433602,16.4140647 77.2792969,15.9765625 C77.1152336,15.5390603 77.0332031,15.0673853 77.0332031,14.5615234 L77.0332031,14.2880859 C77.0332031,13.7047497 77.1197908,13.1772485 77.2929688,12.7055664 C77.4661467,12.2338844 77.7031235,11.8328467 78.0039062,11.5024414 C78.304689,11.1720361 78.6590149,10.9168303 79.0668945,10.7368164 C79.4747742,10.5568025 79.9134091,10.4667969 80.3828125,10.4667969 C80.9205756,10.4667969 81.3876933,10.5568025 81.7841797,10.7368164 C82.180666,10.9168303 82.5087878,11.1686182 82.7685547,11.4921875 C83.0283216,11.8157568 83.2220046,12.2008441 83.3496094,12.6474609 C83.4772142,13.0940778 83.5410156,13.5839817 83.5410156,14.1171875 L83.5410156,14.828125 L78.7080078,14.828125 C78.7307944,15.1152358 78.7911779,15.3795561 78.8891602,15.6210938 C78.9871424,15.8626314 79.1204419,16.0711254 79.2890625,16.246582 C79.4576831,16.4220386 79.6570627,16.5598953 79.887207,16.6601562 C80.1173514,16.7604172 80.3782537,16.8105469 80.6699219,16.8105469 C81.0800802,16.8105469 81.4366847,16.7285164 81.7397461,16.5644531 C82.0428075,16.4003898 82.3059885,16.1748061 82.5292969,15.8876953 L83.4248047,16.7421875 C83.3063145,16.9199228 83.1593433,17.0919588 82.9838867,17.2583008 C82.8084301,17.4246428 82.603354,17.5727533 82.3686523,17.7026367 C82.1339506,17.8325202 81.8684911,17.9373368 81.5722656,18.0170898 C81.2760402,18.0968428 80.9433612,18.1367188 80.5742188,18.1367188 Z M80.3759766,11.7998047 C79.9202451,11.7998047 79.5522475,11.9593083 79.2719727,12.2783203 C78.9916978,12.5973323 78.8128259,13.0416638 78.7353516,13.6113281 L81.9003906,13.6113281 L81.9003906,13.4882812 C81.8867187,13.2695302 81.8514,13.0587575 81.7944336,12.855957 C81.7374672,12.6531565 81.6497402,12.4731453 81.53125,12.315918 C81.4127598,12.1586906 81.2589528,12.0333664 81.0698242,11.9399414 C80.8806957,11.8465165 80.6494154,11.7998047 80.3759766,11.7998047 Z M88.7021484,12.1210938 C88.5927729,12.1028645 88.4822597,12.0891928 88.3706055,12.0800781 C88.2589513,12.0709635 88.1438808,12.0664062 88.0253906,12.0664062 C87.624347,12.0664062 87.2985039,12.1438794 87.0478516,12.2988281 C86.7971993,12.4537768 86.6103522,12.6679674 86.4873047,12.9414062 L86.4873047,18 L84.8261719,18 L84.8261719,10.6035156 L86.4121094,10.6035156 L86.453125,11.4306641 C86.6399749,11.1298813 86.8712551,10.8940438 87.1469727,10.7231445 C87.4226902,10.5522452 87.747394,10.4667969 88.1210938,10.4667969 C88.2167974,10.4667969 88.3250319,10.4770507 88.4458008,10.4975586 C88.5665696,10.5180665 88.6542966,10.5397134 88.7089844,10.5625 L88.7021484,12.1210938 Z" id="Twitter" fill="#FFFFFF"></path>
                    <path d="M17.4183404,20 C23.9200733,20 27.4762469,14.6133619 27.4762469,9.94209356 C27.4762469,9.78909539 27.4762469,9.63678641 27.4659092,9.4851666 C28.1577306,8.98475981 28.7549225,8.36516448 29.2295232,7.65539124 C28.5843665,7.94126471 27.8999755,8.12874045 27.1991962,8.21156025 C27.9371325,7.76978291 28.489428,7.07494376 28.7532991,6.25635396 C28.0594025,6.66810877 27.3002619,6.95829302 26.5086369,7.11438422 C25.4128962,5.949251 23.6717748,5.66408055 22.2615934,6.41878007 C20.851412,7.1734796 20.1228759,8.780359 20.4845064,10.3383726 C17.6422524,10.1958841 14.9941298,8.85341049 13.1991748,6.645052 C12.2609396,8.26024725 12.740172,10.3265597 14.2935941,11.3638738 C13.7310441,11.3472008 13.1807595,11.1954471 12.6891809,10.9214197 L12.6891809,10.9662164 C12.6896414,12.6489157 13.8757792,14.0982234 15.5251604,14.4314181 C15.004739,14.5733481 14.4587085,14.5940953 13.9290174,14.492066 C14.3921111,15.9320564 15.7192163,16.9185231 17.2315724,16.9469285 C15.9798372,17.9306874 14.4335389,18.4647308 12.8414899,18.4631265 C12.5602376,18.4625866 12.2792589,18.4455576 12,18.4121271 C13.6165676,19.449535 15.4975335,19.9998049 17.4183404,19.9972433" id="bird" fill="#FFFFFF"></path>
                </g>
            </g>
        </g>
    </g>
</svg>