<?xml version="1.0" encoding="UTF-8"?>
<svg width="110px" height="26px" viewBox="0 0 110 26" version="1.1" xmlns="http://www.w3.org/2000/svg" xmlns:xlink="http://www.w3.org/1999/xlink">
    <!-- Generator: sketchtool 41.2 (35397) - http://www.bohemiancoding.com/sketch -->
    <title>952B8A7E-5149-4B03-AD19-59A2BCE46C71</title>
    <desc>Created with sketchtool.</desc>
    <defs></defs>
    <g id="Landing" stroke="none" stroke-width="1" fill="none" fill-rule="evenodd">
        <g id="Home-Desktop" transform="translate(-795.000000, -1307.000000)">
            <g id="contacts" transform="translate(0.000000, 1030.000000)">
                <g id="vk" transform="translate(795.000000, 277.000000)">
                    <rect id="button" fill="#4D6D8F" x="0" y="0" width="110" height="26" rx="5"></rect>
                    <path d="M40.5185547,15.8330078 L43.0478516,8.046875 L44.9482422,8.046875 L41.3662109,18 L39.6914062,18 L36.1230469,8.046875 L38.0166016,8.046875 L40.5185547,15.8330078 Z M48.7267578,13.7001953 L47.5988281,14.8964844 L47.5988281,18 L45.8693359,18 L45.8693359,8.046875 L47.5988281,8.046875 L47.5988281,12.7158203 L48.5558594,11.5332031 L51.4679687,8.046875 L53.5597656,8.046875 L49.8615234,12.4560547 L53.7716797,18 L51.7208984,18 L48.7267578,13.7001953 Z M53.8382812,14.2333984 C53.8382812,13.6956353 53.9168937,13.1977562 54.0741211,12.7397461 C54.2313484,12.281736 54.4569321,11.8841163 54.7508789,11.546875 C55.0448257,11.2096337 55.4037088,10.9453135 55.8275391,10.7539062 C56.2513693,10.562499 56.7321588,10.4667969 57.2699219,10.4667969 C57.8122423,10.4667969 58.297589,10.562499 58.7259766,10.7539062 C59.1543641,10.9453135 59.5155259,11.2096337 59.8094727,11.546875 C60.1034194,11.8841163 60.3278638,12.281736 60.4828125,12.7397461 C60.6377612,13.1977562 60.7152344,13.6956353 60.7152344,14.2333984 L60.7152344,14.3769531 C60.7152344,14.9147162 60.6377612,15.4137347 60.4828125,15.8740234 C60.3278638,16.3343122 60.1034194,16.7319319 59.8094727,17.0668945 C59.5155259,17.4018571 59.1555034,17.6638988 58.7293945,17.8530273 C58.3032856,18.0421559 57.8213568,18.1367188 57.2835937,18.1367188 C56.7412733,18.1367188 56.2570659,18.0421559 55.830957,17.8530273 C55.4048481,17.6638988 55.0448257,17.4018571 54.7508789,17.0668945 C54.4569321,16.7319319 54.2313484,16.3343122 54.0741211,15.8740234 C53.9168937,15.4137347 53.8382812,14.9147162 53.8382812,14.3769531 L53.8382812,14.2333984 Z M55.4994141,14.3769531 C55.4994141,14.7096371 55.5335934,15.0240871 55.6019531,15.3203125 C55.6703128,15.6165379 55.7774081,15.8751617 55.9232422,16.0961914 C56.0690762,16.3172212 56.254784,16.4915358 56.4803711,16.6191406 C56.7059582,16.7467454 56.9736964,16.8105469 57.2835937,16.8105469 C57.5889338,16.8105469 57.8543934,16.7467454 58.0799805,16.6191406 C58.3055675,16.4915358 58.490136,16.3172212 58.6336914,16.0961914 C58.7772468,15.8751617 58.8843421,15.6165379 58.9549805,15.3203125 C59.0256188,15.0240871 59.0609375,14.7096371 59.0609375,14.3769531 L59.0609375,14.2333984 C59.0609375,13.9052718 59.0256188,13.5942398 58.9549805,13.300293 C58.8843421,13.0063462 58.7761075,12.7488618 58.6302734,12.527832 C58.4844394,12.3068023 58.2987316,12.130209 58.0731445,11.9980469 C57.8475575,11.8658848 57.5798193,11.7998047 57.2699219,11.7998047 C56.9600245,11.7998047 56.6945649,11.8658848 56.4735352,11.9980469 C56.2525054,12.130209 56.0690762,12.3068023 55.9232422,12.527832 C55.7774081,12.7488618 55.6703128,13.0063462 55.6019531,13.300293 C55.5335934,13.5942398 55.4994141,13.9052718 55.4994141,14.2333984 L55.4994141,14.3769531 Z M63.4615234,10.6035156 L63.509375,11.4580078 C63.7691419,11.1435531 64.0813133,10.8997404 64.4458984,10.7265625 C64.8104836,10.5533846 65.2160785,10.4667969 65.6626953,10.4667969 C66.0181658,10.4667969 66.340591,10.5157873 66.6299805,10.6137695 C66.9193699,10.7117518 67.1666005,10.8701161 67.3716797,11.0888672 C67.5767588,11.3076183 67.7351231,11.5924462 67.8467773,11.9433594 C67.9584315,12.2942726 68.0142578,12.7203751 68.0142578,13.2216797 L68.0142578,18 L66.353125,18 L66.353125,13.2080078 C66.353125,12.9527982 66.3246422,12.7374683 66.2676758,12.5620117 C66.2107093,12.3865551 66.1275396,12.2441412 66.0181641,12.1347656 C65.9087885,12.0253901 65.7732104,11.9467776 65.6114258,11.8989258 C65.4496411,11.851074 65.2639333,11.8271484 65.0542969,11.8271484 C64.7124983,11.8271484 64.415138,11.9091789 64.162207,12.0732422 C63.9092761,12.2373055 63.7076179,12.4583319 63.5572266,12.7363281 L63.5572266,18 L61.8960937,18 L61.8960937,10.6035156 L63.4615234,10.6035156 Z M71.5876953,8.80566406 L71.5876953,10.6035156 L72.8933594,10.6035156 L72.8933594,11.8339844 L71.5876953,11.8339844 L71.5876953,15.9628906 C71.5876953,16.1315113 71.6059243,16.2682286 71.6423828,16.3730469 C71.6788413,16.4778651 71.7312496,16.5587562 71.7996094,16.6157227 C71.8679691,16.6726891 71.9488602,16.7114257 72.0422851,16.7319336 C72.1357101,16.7524415 72.2393874,16.7626953 72.3533203,16.7626953 C72.4672532,16.7626953 72.5777664,16.7547201 72.6848633,16.7387695 C72.7919602,16.7228189 72.8751299,16.7080079 72.934375,16.6943359 L72.934375,17.9794922 C72.8022129,18.0159507 72.6484058,18.0512694 72.4729492,18.0854492 C72.2974926,18.1196291 72.08672,18.1367188 71.840625,18.1367188 C71.5671861,18.1367188 71.3131197,18.1002608 71.078418,18.0273438 C70.8437163,17.9544267 70.6409188,17.8359383 70.4700195,17.671875 C70.2991202,17.5078117 70.1658208,17.2936211 70.0701172,17.0292969 C69.9744136,16.7649726 69.9265625,16.4414082 69.9265625,16.0585938 L69.9265625,11.8339844 L68.7097656,11.8339844 L68.7097656,10.6035156 L69.9265625,10.6035156 L69.9265625,8.80566406 L71.5876953,8.80566406 Z M78.3808594,18 C78.3352862,17.913411 78.2976889,17.810873 78.2680664,17.6923828 C78.2384438,17.5738926 78.2122397,17.4462897 78.1894531,17.3095703 C78.0800776,17.4235032 77.9581712,17.5305985 77.8237305,17.6308594 C77.6892897,17.7311203 77.5411792,17.8188473 77.3793945,17.894043 C77.2176099,17.9692387 77.0421559,18.0284829 76.8530273,18.0717773 C76.6638988,18.1150718 76.4622406,18.1367188 76.2480469,18.1367188 C75.8789044,18.1367188 75.5393896,18.0808925 75.2294922,17.9692383 C74.9195948,17.8575841 74.6541352,17.7026377 74.4331055,17.5043945 C74.2120757,17.3061514 74.0389004,17.0725925 73.9135742,16.8037109 C73.7882481,16.5348294 73.7255859,16.2431656 73.7255859,15.9287109 C73.7255859,15.5322246 73.8007805,15.1813166 73.9511719,14.8759766 C74.1015632,14.5706365 74.320311,14.3154307 74.6074219,14.1103516 C74.8945327,13.9052724 75.2465799,13.7491867 75.6635742,13.6420898 C76.0805685,13.534993 76.5556614,13.4814453 77.0888672,13.4814453 L78.1347656,13.4814453 L78.1347656,12.9960938 C78.1347656,12.6132793 78.0276703,12.3068045 77.8134765,12.0766602 C77.5992828,11.8465158 77.2734397,11.7314453 76.8359375,11.7314453 C76.639973,11.7314453 76.4622404,11.7576495 76.3027344,11.8100586 C76.1432284,11.8624677 76.0076503,11.933105 75.8959961,12.0219727 C75.7843419,12.1108403 75.6977542,12.2167963 75.6362305,12.3398438 C75.5747067,12.4628912 75.5439453,12.5950514 75.5439453,12.7363281 L73.8828125,12.7363281 C73.8828125,12.44466 73.9545891,12.1632501 74.0981445,11.8920898 C74.2416999,11.6209296 74.4456367,11.3793956 74.7099609,11.1674805 C74.9742852,10.9555653 75.2944317,10.7858079 75.6704101,10.6582031 C76.0463886,10.5305983 76.4667945,10.4667969 76.9316406,10.4667969 C77.3463562,10.4667969 77.7291649,10.5203445 78.0800781,10.6274414 C78.4309913,10.7345383 78.7340482,10.8940419 78.9892578,11.105957 C79.2444674,11.3178722 79.4427076,11.5821924 79.5839844,11.8989258 C79.7252611,12.2156591 79.7958984,12.5859354 79.7958984,13.0097656 L79.7958984,16.2910156 C79.7958984,16.9563835 79.889322,17.4873027 80.0761719,17.8837891 L80.0761719,18 L78.3808594,18 Z M76.555664,16.8037109 C76.7470713,16.8037109 76.9259432,16.7786461 77.0922851,16.7285156 C77.2586271,16.6783852 77.4090162,16.6123051 77.543457,16.5302734 C77.6778978,16.4482418 77.7952469,16.3536789 77.8955078,16.246582 C77.9957687,16.1394851 78.0755205,16.0312505 78.1347656,15.921875 L78.1347656,14.5273438 L77.2392578,14.5273438 C76.6240203,14.5273438 76.1614599,14.634439 75.8515625,14.8486328 C75.5416651,15.0628266 75.3867187,15.3658835 75.3867187,15.7578125 C75.3867187,15.9082039 75.4117836,16.0471999 75.461914,16.1748047 C75.5120445,16.3024095 75.5872391,16.4129227 75.6875,16.5063477 C75.7877609,16.5997726 75.9096672,16.6726885 76.0532226,16.7250977 C76.196778,16.7775068 76.3642568,16.8037109 76.555664,16.8037109 Z M83.7384765,14.828125 L83.0001953,15.5869141 L83.0001953,18 L81.3390625,18 L81.3390625,7.5 L83.0001953,7.5 L83.0001953,13.5566406 L83.5197265,12.9072266 L85.5636719,10.6035156 L87.5597656,10.6035156 L84.8117187,13.6865234 L87.8537109,18 L85.9328125,18 L83.7384765,14.828125 Z M90.5248047,8.80566406 L90.5248047,10.6035156 L91.8304687,10.6035156 L91.8304687,11.8339844 L90.5248047,11.8339844 L90.5248047,15.9628906 C90.5248047,16.1315113 90.5430337,16.2682286 90.5794922,16.3730469 C90.6159507,16.4778651 90.668359,16.5587562 90.7367187,16.6157227 C90.8050784,16.6726891 90.8859696,16.7114257 90.9793945,16.7319336 C91.0728195,16.7524415 91.1764968,16.7626953 91.2904297,16.7626953 C91.4043625,16.7626953 91.5148757,16.7547201 91.6219726,16.7387695 C91.7290695,16.7228189 91.8122393,16.7080079 91.8714844,16.6943359 L91.8714844,17.9794922 C91.7393222,18.0159507 91.5855152,18.0512694 91.4100586,18.0854492 C91.234602,18.1196291 91.0238293,18.1367188 90.7777344,18.1367188 C90.5042955,18.1367188 90.250229,18.1002608 90.0155273,18.0273438 C89.7808256,17.9544267 89.5780282,17.8359383 89.4071289,17.671875 C89.2362296,17.5078117 89.1029301,17.2936211 89.0072265,17.0292969 C88.9115229,16.7649726 88.8636719,16.4414082 88.8636719,16.0585938 L88.8636719,11.8339844 L87.646875,11.8339844 L87.646875,10.6035156 L88.8636719,10.6035156 L88.8636719,8.80566406 L90.5248047,8.80566406 Z M96.1558594,18.1367188 C95.6089816,18.1367188 95.116799,18.0455738 94.6792969,17.8632812 C94.2417947,17.6809887 93.8703791,17.4303401 93.565039,17.1113281 C93.259699,16.7923161 93.0250008,16.4140647 92.8609375,15.9765625 C92.6968742,15.5390603 92.6148437,15.0673853 92.6148437,14.5615234 L92.6148437,14.2880859 C92.6148437,13.7047497 92.7014314,13.1772485 92.8746094,12.7055664 C93.0477873,12.2338844 93.2847641,11.8328467 93.5855469,11.5024414 C93.8863296,11.1720361 94.2406555,10.9168303 94.6485351,10.7368164 C95.0564148,10.5568025 95.4950497,10.4667969 95.9644531,10.4667969 C96.5022162,10.4667969 96.9693339,10.5568025 97.3658203,10.7368164 C97.7623066,10.9168303 98.0904284,11.1686182 98.3501953,11.4921875 C98.6099622,11.8157568 98.8036452,12.2008441 98.93125,12.6474609 C99.0588548,13.0940778 99.1226562,13.5839817 99.1226562,14.1171875 L99.1226562,14.828125 L94.2896484,14.828125 C94.312435,15.1152358 94.3728185,15.3795561 94.4708008,15.6210938 C94.568783,15.8626314 94.7020825,16.0711254 94.8707031,16.246582 C95.0393237,16.4220386 95.2387033,16.5598953 95.4688476,16.6601562 C95.698992,16.7604172 95.9598944,16.8105469 96.2515625,16.8105469 C96.6617208,16.8105469 97.0183253,16.7285164 97.3213867,16.5644531 C97.6244481,16.4003898 97.8876291,16.1748061 98.1109375,15.8876953 L99.0064453,16.7421875 C98.8879551,16.9199228 98.7409839,17.0919588 98.5655273,17.2583008 C98.3900707,17.4246428 98.1849946,17.5727533 97.9502929,17.7026367 C97.7155913,17.8325202 97.4501317,17.9373368 97.1539062,18.0170898 C96.8576808,18.0968428 96.5250018,18.1367188 96.1558594,18.1367188 Z M95.9576172,11.7998047 C95.5018857,11.7998047 95.1338881,11.9593083 94.8536133,12.2783203 C94.5733384,12.5973323 94.3944665,13.0416638 94.3169922,13.6113281 L97.4820312,13.6113281 L97.4820312,13.4882812 C97.4683593,13.2695302 97.4330406,13.0587575 97.3760742,12.855957 C97.3191078,12.6531565 97.2313808,12.4731453 97.1128906,12.315918 C96.9944004,12.1586906 96.8405934,12.0333664 96.6514648,11.9399414 C96.4623363,11.8465165 96.231056,11.7998047 95.9576172,11.7998047 Z" id="VKontakte" fill="#FFFFFF"></path>
                    <path d="M25.0253996,12.8837529 C25.0253996,12.8837529 27.7258572,9.07452317 27.9942008,7.82265444 C28.0835985,7.37559074 27.8868784,7.1250965 27.4218147,7.1250965 L25.0790985,7.1250965 C24.5425618,7.1250965 24.3458417,7.35759071 24.1848958,7.69740732 C24.1848958,7.69740732 22.9182655,10.3962833 21.3771159,12.0969479 C20.8823784,12.6467398 20.6308298,12.8122046 20.3577413,12.8122046 C20.137448,12.8122046 20.0358494,12.6285892 20.0358494,12.1326467 L20.0358494,7.78688031 C20.0358494,7.17887067 19.9643012,7 19.4636139,7 L15.7080078,7 C15.4218147,7 15.242944,7.16636855 15.242944,7.39336484 C15.242944,7.96597692 16.1192973,8.09529099 16.1192973,9.64675868 L16.1192973,12.8479788 C16.1192973,13.4918378 16.0835232,13.7421815 15.7794807,13.7421815 C14.974751,13.7421815 13.0611738,10.970251 11.9881757,7.82265444 C11.7735309,7.17887067 11.5410367,7 10.9329517,7 L8.59023554,7 C8.25041893,7 8,7.2324189 8,7.57216019 C8,8.19809456 8.73325676,11.0953475 11.612585,14.9762008 C13.5440116,17.5871853 16.0835232,19 18.3726158,19 C19.7675811,19 20.1073977,18.7675811 20.1073977,18.1773456 L20.1073977,16.1743707 C20.1073977,15.6736081 20.3041178,15.4590386 20.5902355,15.4590386 C20.9121274,15.4590386 21.480296,15.5624447 22.8078552,16.8718533 C24.3816159,18.374141 24.4889383,19 25.3474421,19 L27.9762761,19 C28.2445444,19 28.4948881,18.8748282 28.4948881,18.4277645 C28.4948881,17.8375289 27.7258572,16.7824556 26.5455367,15.5305116 C26.0626989,14.8867278 25.2758186,14.1893205 25.0253996,13.8674286 C24.6678089,13.4918378 24.775056,13.2771177 25.0253996,12.8837529" fill="#FFFFFF"></path>
                </g>
            </g>
        </g>
    </g>
</svg>